<svg version="1.1" id="Layer_1" xmlns="http://www.w3.org/2000/svg" xmlns:xlink="http://www.w3.org/1999/xlink" x="0px" y="0px"
	 width="100%" viewBox="0 0 179 200" enable-background="new 0 0 179 200" xml:space="preserve">
<path fill="#FFFEFE" opacity="1.000000" stroke="none" 
	d="
M180.000000,71.000000 
	C180.000000,114.638184 180.000000,157.776367 180.000000,200.957275 
	C120.401215,200.957275 60.802395,200.957275 1.101787,200.957275 
	C1.101787,134.445328 1.101787,67.890434 1.101787,1.167775 
	C60.666279,1.167775 120.333099,1.167775 180.000000,1.167775 
	C180.000000,24.197334 180.000000,47.348667 180.000000,71.000000 
M162.891769,136.681015 
	C162.988434,136.134338 163.085098,135.587646 163.627884,134.411163 
	C164.428802,128.778442 165.229721,123.145729 166.101791,117.173737 
	C166.126541,116.940170 166.103424,116.711449 166.819275,116.075073 
	C166.827148,113.722694 166.835022,111.370316 166.978577,108.482727 
	C166.860458,107.958466 166.742355,107.434204 166.637390,106.065948 
	C166.218552,103.967896 165.963272,101.821007 165.353928,99.779823 
	C161.778427,87.802773 149.330734,83.638603 138.172607,91.011375 
	C137.732361,89.668060 137.292114,88.324745 136.974213,86.226875 
	C137.752945,84.950096 138.568253,83.693954 139.302856,82.392273 
	C140.859528,79.633949 144.112274,76.441597 143.573257,74.158081 
	C142.080902,67.835785 142.821503,61.357121 141.566925,55.330502 
	C140.579803,50.588531 136.207047,46.376251 134.040543,41.529892 
	C134.040543,41.529892 133.995163,41.513882 134.008621,41.501869 
	C134.008621,41.501869 134.031219,41.508656 134.231064,40.545628 
	C134.164169,40.224674 134.097275,39.903721 133.761932,39.261761 
	C133.362488,38.886303 132.963043,38.510845 131.841141,37.752647 
	C129.979248,36.891678 128.117355,36.030708 127.587563,35.785725 
	C125.859550,30.756142 124.436913,26.615383 122.843086,22.321629 
	C122.843086,22.321629 122.521873,21.995340 122.787880,21.247227 
	C115.228767,11.494989 106.919991,11.618785 92.898827,21.293785 
	C88.944603,19.906534 85.472374,18.115471 81.825691,17.627090 
	C79.689018,17.340939 77.274307,19.130886 75.000000,20.000103 
	C75.000000,20.000103 74.992378,19.981585 74.496590,19.286133 
	C71.691093,21.609980 68.885590,23.933825 65.692909,26.578381 
	C61.036480,24.929176 55.875114,25.005991 50.877457,29.808603 
	C49.498070,29.754847 47.959213,30.081654 46.766685,29.581955 
	C41.384937,27.326853 36.092396,26.893475 31.059248,30.186062 
	C29.994448,30.882635 29.657364,32.691616 29.000074,34.000034 
	C29.000074,34.000034 28.991390,33.982613 28.276176,33.228115 
	C27.843794,34.486275 27.411411,35.744438 27.000124,37.000736 
	C27.000124,37.000736 26.987514,36.985542 26.329451,36.293209 
	C25.296612,40.211563 24.263773,44.129917 22.953953,49.099068 
	C15.364184,53.668995 13.051429,58.595665 15.358659,68.082520 
	C15.908825,69.035156 16.458990,69.987785 17.191612,71.606651 
	C19.082623,73.596924 20.973633,75.587189 22.895903,77.610359 
	C22.109175,79.031754 21.081848,80.524010 20.412167,82.162453 
	C17.884245,88.347282 19.951826,94.894302 24.998260,96.997856 
	C24.998260,96.997856 24.974178,97.002647 24.835958,97.762161 
	C27.794806,99.072601 30.753654,100.383041 33.901943,101.777382 
	C33.901943,103.403854 33.894737,105.392334 33.903416,107.380745 
	C33.922512,111.755783 33.949638,116.130783 33.937931,120.834229 
	C33.925938,121.055099 33.937641,121.274712 33.265038,122.054543 
	C33.196507,125.032776 33.031441,128.014816 33.148148,130.985764 
	C33.169239,131.522720 34.347317,132.014252 34.949310,132.840591 
	C34.935627,133.052719 34.950867,133.262756 34.045158,132.993088 
	C33.705788,133.680252 33.068119,134.369614 33.073120,135.054260 
	C33.124043,142.025818 32.974289,149.019974 33.505554,155.959976 
	C33.907864,161.215439 35.097553,166.427475 36.227654,171.595245 
	C36.438225,172.558151 38.028885,173.219269 39.000908,173.999115 
	C39.000908,173.999115 38.973774,174.004303 38.149101,174.409698 
	C39.428825,175.948395 40.708549,177.487091 41.998318,178.995239 
	C41.998318,178.995239 41.968792,179.008606 41.934021,179.896988 
	C45.220524,182.645905 45.703426,182.654114 46.936909,180.041473 
	C47.291599,180.215607 47.646286,180.389740 47.001678,180.541611 
	C47.154297,181.523895 47.063366,183.219574 47.500401,183.368774 
	C49.764351,184.141693 52.163193,184.519470 54.835052,185.064941 
	C55.050282,185.075500 55.263653,185.060196 55.654949,185.786560 
	C57.153049,186.209061 58.651150,186.631561 60.594601,187.048813 
	C60.891495,187.044708 61.188400,187.041992 62.489338,187.005630 
	C77.287727,187.019592 92.107841,187.497818 106.873268,186.807053 
	C112.377304,186.549591 117.753563,183.560699 123.678268,181.762146 
	C124.175850,181.302887 124.673424,180.843628 125.756233,180.172180 
	C126.438385,179.438354 127.120544,178.704514 128.297775,177.461838 
	C131.065170,169.213531 133.832581,160.965240 136.437790,153.200333 
	C138.786285,153.688416 142.076508,154.747742 145.413467,154.924438 
	C147.405548,155.029938 149.455841,153.748245 146.505432,152.030060 
	C146.827438,152.047989 147.146988,152.027618 146.957581,153.050949 
	C147.910980,153.148346 148.864365,153.245743 149.817764,153.343155 
	C149.550354,152.709991 149.282928,152.076813 149.364655,151.292252 
	C149.731964,151.199203 150.099289,151.106140 150.286987,151.963104 
	C155.870590,152.227127 156.957855,147.265335 159.827057,143.502457 
	C160.228668,142.172333 160.630264,140.842209 161.763962,139.283096 
	C162.025192,138.564240 162.286438,137.845398 162.891769,136.681015 
z"/>
<path fill="#FFFCFD" opacity="1.000000" stroke="none" 
	d="
M122.521873,21.995340 
	C122.521873,21.995340 122.843086,22.321629 122.399330,22.328754 
	C122.008461,23.382212 121.771660,24.553192 122.159821,25.455256 
	C125.423645,33.040348 121.817856,38.985321 117.729614,44.867744 
	C117.755386,44.898285 117.684181,44.930195 117.302933,44.982796 
	C116.856560,45.662876 116.791435,46.290363 116.726311,46.917847 
	C117.403854,46.788677 118.081406,46.659504 118.983139,46.398163 
	C119.506531,45.859787 119.805740,45.453583 120.413086,44.896542 
	C122.480057,42.824471 124.006050,39.712135 126.061874,39.310280 
	C128.203644,38.891628 130.851120,41.101051 133.300156,42.106182 
	C133.438751,42.163063 133.782791,41.719368 134.031219,41.508656 
	C134.031219,41.508656 134.008621,41.501869 133.533966,41.471329 
	C133.165009,42.278057 133.270737,43.115326 133.369034,44.321476 
	C132.575134,48.450481 131.788666,52.210609 130.893219,56.491688 
	C132.683441,55.086956 134.528259,53.639378 136.357651,52.203911 
	C141.023285,56.546017 141.023285,56.546017 135.046524,67.217247 
	C140.369110,66.755310 141.201950,70.229134 141.077423,74.236877 
	C140.901352,79.904091 137.188492,82.058830 130.238953,80.306824 
	C128.996460,78.838486 127.957115,77.665009 126.917778,76.491531 
	C126.471008,76.851074 126.024239,77.210609 125.577469,77.570152 
	C126.626305,78.957436 127.675140,80.344711 128.918854,82.027405 
	C131.861679,83.620941 130.873062,85.007065 129.229858,86.418381 
	C129.249771,86.427681 129.250092,86.460793 128.991394,86.552010 
	C128.275925,87.143845 127.819183,87.644470 127.289856,88.184006 
	C127.217262,88.222931 127.052933,88.211502 126.701790,88.161987 
	C122.759514,87.632187 118.518867,88.168571 115.750687,86.400116 
	C112.671066,84.432678 110.509560,81.787010 106.243095,82.578522 
	C105.106239,82.789436 103.102303,80.926201 102.254135,79.548714 
	C100.524605,76.739830 99.247124,77.830399 97.558563,79.567215 
	C97.039291,79.787323 96.711517,79.978615 95.924339,80.291534 
	C90.488892,81.991798 86.238121,81.307785 82.862633,76.861740 
	C82.435638,76.299324 80.535629,76.855247 78.969498,77.014679 
	C74.066948,78.025146 69.512970,78.913986 63.624500,80.063286 
	C62.201813,86.572594 56.356354,89.482613 47.782963,88.093086 
	C48.665794,93.802956 50.963509,99.007492 44.885963,102.204300 
	C43.358765,101.454430 42.091095,100.738388 40.831635,99.758987 
	C40.763325,98.975113 40.686810,98.454605 40.739216,97.528931 
	C39.964813,96.694115 38.568684,95.656822 38.233955,95.928291 
	C34.664997,98.822716 31.030397,98.195305 27.215273,96.644684 
	C26.615770,96.401031 25.728430,96.865570 24.974178,97.002655 
	C24.974178,97.002647 24.998260,96.997856 25.410999,96.792870 
	C18.137972,86.035301 23.229290,78.905342 32.858238,72.836357 
	C29.556967,73.108315 26.733023,74.774849 24.532471,74.170708 
	C22.129530,73.511009 20.303711,70.749168 18.205105,68.622826 
	C17.920523,67.862816 17.657169,67.383583 17.321756,66.478012 
	C15.763734,53.055439 24.209251,50.053974 35.402607,49.817856 
	C35.133865,49.313881 34.865124,48.809906 34.596386,48.305931 
	C32.264881,47.986553 29.933376,47.667179 26.987514,47.263649 
	C26.987514,43.801834 26.987514,40.393688 26.987514,36.985542 
	C26.987514,36.985542 27.000124,37.000736 27.373692,37.154716 
	C28.161970,36.200005 28.576681,35.091309 28.991390,33.982613 
	C28.991390,33.982613 29.000074,34.000034 29.272137,34.278328 
	C39.749062,26.328440 47.105080,31.116753 53.721504,39.800098 
	C53.160179,37.227364 52.598858,34.654633 52.305721,31.947800 
	C52.944687,31.345726 53.315464,30.877750 53.997143,30.233206 
	C61.455582,26.174341 66.911575,29.160046 72.116219,36.070526 
	C72.116219,33.755566 72.380394,32.912498 72.076492,32.562050 
	C67.699394,27.514454 70.693268,24.409834 74.830208,21.503735 
	C75.105057,21.310661 74.948357,20.503254 74.992386,19.981585 
	C74.992378,19.981585 75.000000,20.000103 75.254807,20.431257 
	C79.211006,21.040575 83.285774,20.317074 86.508301,21.651566 
	C89.703842,22.974882 92.040848,26.371418 95.355438,29.409605 
	C94.937294,27.142342 94.659904,25.638281 94.381760,24.130133 
	C94.928413,23.680141 95.436546,23.259405 95.947250,22.841810 
	C105.293526,15.199496 110.907417,15.066080 120.599075,22.156776 
	C120.990906,22.443441 121.869873,22.064278 122.521873,21.995340 
z"/>
<path fill="#FFFAFC" opacity="1.000000" stroke="none" 
	d="
M33.973038,121.493057 
	C33.937641,121.274712 33.925938,121.055099 34.415543,120.929092 
	C35.508911,117.920410 36.124672,114.816864 36.837360,111.224792 
	C38.527405,111.224792 40.317665,111.217270 42.107845,111.225922 
	C70.228645,111.361885 98.350243,111.426994 126.469109,111.738670 
	C129.640228,111.773827 132.795868,113.203484 135.961487,113.958649 
	C135.964264,113.930817 135.967026,113.897522 135.385529,113.949646 
	C134.541748,115.260918 134.119553,116.510315 134.042038,117.780746 
	C133.308304,129.807205 132.633209,141.837265 131.637665,153.882263 
	C130.687653,154.301422 130.041199,154.704590 129.175964,155.068405 
	C128.083145,155.243164 127.209145,155.457306 126.172760,155.454102 
	C125.759514,155.261566 125.508636,155.286362 125.257767,155.311172 
	C125.429405,155.615799 125.601036,155.920425 125.789978,156.546722 
	C125.863129,157.075729 125.918976,157.283096 125.790253,157.636719 
	C125.062271,158.348053 124.518845,158.913132 123.673286,159.653961 
	C122.744804,160.378632 122.118462,160.927582 121.492119,161.476532 
	C122.312119,162.140610 123.132118,162.804703 123.996040,163.797531 
	C124.022804,166.076889 124.005646,168.027512 123.776184,169.935608 
	C123.563889,169.893112 123.134460,169.837357 122.968246,169.601105 
	C122.284813,169.117935 121.767586,168.871017 121.203865,168.354797 
	C120.672348,168.000427 120.187325,167.915329 119.702301,167.830231 
	C120.067116,168.299698 120.431938,168.769135 120.997620,169.449509 
	C121.745056,169.833649 122.291641,170.006836 122.857437,170.489655 
	C122.905426,171.212326 122.934212,171.625351 122.854195,172.298065 
	C122.177711,173.024780 121.610031,173.491791 120.704697,173.804520 
	C118.935402,173.433212 117.503769,173.216171 116.053635,172.987396 
	C116.035133,172.975647 116.036888,173.019424 116.242973,172.732574 
	C116.508743,168.653931 115.084755,168.017181 110.754517,170.066528 
	C109.670876,170.826340 108.652008,171.474747 108.328072,172.373596 
	C107.925735,173.489929 108.098206,174.813446 108.002419,176.286469 
	C107.982430,176.525467 107.827034,176.979248 107.588531,176.725021 
	C106.730164,175.021576 106.110298,173.572372 105.490425,172.123154 
	C105.122986,172.292145 104.755554,172.461151 104.388115,172.630142 
	C104.582008,174.424454 104.775909,176.218781 104.607788,178.005661 
	C103.524651,177.968735 102.803543,177.939240 101.985306,177.615112 
	C101.624817,177.293243 101.361465,177.265976 101.098106,177.238693 
	C101.214294,177.656769 101.330475,178.074829 101.566742,178.739716 
	C101.523598,179.640228 101.360382,180.293945 100.913040,181.057739 
	C100.405006,181.496460 100.181091,181.825089 99.624725,182.154846 
	C98.509399,181.830322 97.726524,181.504639 97.003601,180.821960 
	C97.995262,178.874619 98.926979,177.284286 99.858688,175.693939 
	C99.444878,175.375412 99.031059,175.056885 98.617249,174.738358 
	C96.739922,176.814316 94.862595,178.890274 92.836098,181.249191 
	C91.778625,182.001694 90.870323,182.471252 89.972542,182.974731 
	C89.983055,183.008636 90.052498,182.993759 90.128532,182.646301 
	C89.805138,182.181732 89.405708,182.064621 89.001190,181.975540 
	C88.996094,182.003571 89.052773,181.997787 89.146759,181.621338 
	C89.158424,180.496979 89.076111,179.749054 89.291901,178.885986 
	C90.110115,177.886581 90.630211,177.002319 91.343170,175.954163 
	C91.509415,175.379791 91.482819,174.969345 91.456207,174.558884 
	C91.220016,174.968933 90.983818,175.378983 90.450531,175.850845 
	C89.427536,176.779510 88.701637,177.646378 87.582771,178.588394 
	C86.622177,179.448364 86.054543,180.233170 85.186813,181.043732 
	C84.154602,181.309128 83.422485,181.548752 82.516754,181.845215 
	C82.516754,180.283539 82.516754,179.061005 82.516754,177.838455 
	C81.578636,178.619232 80.731377,179.565277 79.681374,180.142563 
	C78.052483,181.038116 76.285446,181.682434 74.576973,182.433258 
	C74.432640,181.661377 74.288307,180.889496 74.407570,179.958115 
	C75.619209,179.436020 76.567261,179.073410 77.515305,178.710800 
	C76.895752,178.159683 76.276199,177.608582 75.656647,177.057480 
	C75.030571,177.975296 74.404495,178.893112 73.406418,179.848053 
	C70.317398,179.742081 69.690796,181.317490 69.567627,183.895752 
	C67.464546,184.115662 65.638794,183.687531 64.078140,184.151352 
	C63.021004,184.465530 62.336487,186.033478 61.485321,187.040665 
	C61.188400,187.041992 60.891495,187.044708 60.810822,186.748749 
	C59.946991,182.979645 57.875443,183.361038 55.475166,185.019043 
	C55.263653,185.060196 55.050282,185.075500 54.951439,184.668121 
	C52.712208,183.035492 50.356590,181.799683 48.000973,180.563873 
	C47.646286,180.389740 47.291599,180.215607 46.343113,179.796509 
	C44.489143,179.370544 43.228970,179.189575 41.968792,179.008606 
	C41.968792,179.008606 41.998318,178.995239 42.419022,178.813751 
	C41.551075,177.089600 40.262428,175.546951 38.973778,174.004303 
	C38.973774,174.004303 39.000908,173.999115 39.308624,173.717133 
	C38.398026,164.641510 37.082821,155.859741 36.001694,147.049271 
	C35.449551,142.549652 35.317146,137.998520 34.995026,133.470673 
	C34.950867,133.262756 34.935627,133.052719 35.332672,132.407227 
	C35.787502,128.978165 35.953785,125.978897 35.840744,122.990196 
	C35.821007,122.468346 34.625507,121.990967 33.973038,121.493057 
M116.139366,146.493958 
	C116.066490,142.697693 113.684128,140.267899 110.381264,140.312073 
	C107.612900,140.349091 104.046173,141.598526 102.381828,143.599487 
	C101.099098,145.141647 101.435791,149.089447 102.530167,151.202118 
	C103.348076,152.781052 106.536469,153.911880 108.644943,153.874329 
	C112.595070,153.803955 115.374489,151.458038 116.139366,146.493958 
M100.633194,128.013397 
	C102.215469,127.030701 104.758652,126.344986 105.173843,125.001595 
	C105.963425,122.446770 106.691360,118.528862 105.353958,116.963814 
	C103.138634,114.371422 99.684525,116.017006 97.597656,118.459114 
	C95.197701,121.267593 95.577263,124.283760 98.144699,126.931793 
	C98.584404,127.385292 99.284035,127.586769 100.633194,128.013397 
M78.811188,146.239990 
	C75.725670,146.956497 73.207001,148.786133 74.036507,152.006042 
	C74.647804,154.378967 76.587730,157.296707 78.672699,158.132050 
	C80.453003,158.845322 83.982552,157.622849 85.510124,156.057800 
	C89.316414,152.158173 86.195702,147.174210 78.811188,146.239990 
M100.768333,173.824860 
	C100.996246,173.732727 101.224152,173.640579 101.452065,173.548447 
	C101.148529,173.529648 100.844986,173.510849 100.768333,173.824860 
z"/>
<path fill="#FFF7FA" opacity="1.000000" stroke="none" 
	d="
M150.466599,151.013092 
	C150.099289,151.106140 149.731964,151.199203 148.806549,151.511688 
	C147.986984,151.810379 147.725540,151.889664 147.464096,151.968933 
	C147.146988,152.027618 146.827438,152.047989 145.926239,152.155075 
	C141.885986,152.053467 138.006622,152.673843 136.924896,147.690826 
	C136.793533,146.491928 136.467117,145.626572 136.117096,144.413773 
	C136.131119,142.405853 136.168747,140.745392 136.415741,139.084335 
	C136.625137,139.083755 137.008911,138.916122 137.432190,138.991943 
	C144.379242,138.972305 150.658508,138.433899 152.945404,130.731262 
	C152.914154,130.742371 152.990036,130.532166 153.378479,130.358948 
	C153.836655,127.950424 153.906387,125.715118 153.956665,123.321121 
	C153.925232,122.948837 153.934036,122.736107 154.420319,122.776810 
	C154.910431,120.181564 154.943848,117.333733 154.960541,114.468369 
	C154.943787,114.450836 154.964340,114.436310 155.269989,114.034538 
	C153.962936,104.932770 150.648514,101.855484 143.023178,101.950432 
	C141.705734,101.966835 140.387360,101.908470 139.045609,101.931732 
	C139.021805,101.978821 139.117874,101.934959 139.063141,101.687973 
	C138.993729,101.272987 138.979050,101.104973 139.197495,100.776909 
	C140.592728,98.566971 141.757858,96.518776 142.909836,94.463211 
	C142.982758,94.333076 142.953247,94.145523 143.335724,93.844330 
	C144.722214,92.504807 145.768234,90.274017 146.762131,90.297012 
	C149.931320,90.370338 153.396744,90.638191 156.173538,92.000931 
	C162.187698,94.952423 163.269119,101.023918 164.091019,107.328835 
	C164.133942,108.128632 164.230240,108.582108 164.267273,109.477089 
	C164.200409,111.750954 164.080566,113.595032 164.269653,115.406868 
	C164.313171,115.823875 165.416718,116.130257 166.032440,116.487556 
	C166.103424,116.711449 166.126541,116.940170 165.652191,117.064728 
	C163.848694,122.932304 162.494797,128.908890 161.018341,134.990631 
	C160.757507,135.296906 160.751190,135.502106 160.615753,136.040527 
	C160.580414,137.417145 160.806137,138.464615 161.031860,139.512085 
	C160.630264,140.842209 160.228668,142.172333 159.705170,143.667328 
	C159.583282,143.832199 159.458466,143.681152 159.648254,143.292831 
	C159.495743,142.470093 159.153458,142.035675 158.811172,141.601257 
	C158.204819,142.399780 157.598450,143.198303 156.721222,144.190063 
	C154.455780,146.593246 152.461197,148.803162 150.466599,151.013092 
z"/>
<path fill="#FF005B" opacity="1.000000" stroke="none" 
	d="
M139.069412,101.884636 
	C140.387360,101.908470 141.705734,101.966835 143.023178,101.950432 
	C150.648514,101.855484 153.962936,104.932770 154.795349,114.060455 
	C153.316818,112.848213 152.626282,111.204941 151.918839,109.568993 
	C150.126404,105.423950 146.703629,104.117661 142.569992,104.634735 
	C138.543976,105.138351 136.338501,107.406067 136.796417,111.773376 
	C136.869888,112.474098 136.255249,113.246971 135.958694,113.986481 
	C132.795868,113.203484 129.640228,111.773827 126.469109,111.738670 
	C98.350243,111.426994 70.228645,111.361885 42.107845,111.225922 
	C40.317665,111.217270 38.527405,111.224792 36.837360,111.224792 
	C36.124672,114.816864 35.508911,117.920410 34.433319,120.764877 
	C33.949638,116.130783 33.922512,111.755783 33.903416,107.380745 
	C33.894737,105.392334 33.901943,103.403854 33.901943,101.777382 
	C30.753654,100.383041 27.794806,99.072601 24.905069,97.382408 
	C25.728430,96.865570 26.615770,96.401031 27.215273,96.644684 
	C31.030397,98.195305 34.664997,98.822716 38.233955,95.928291 
	C38.568684,95.656822 39.964813,96.694115 40.372448,97.546440 
	C38.900555,98.591843 37.924355,99.214561 36.875519,100.302765 
	C36.685959,103.215103 36.569027,105.661980 36.431549,108.538834 
	C69.251579,108.538834 101.529648,108.538834 134.246017,108.538834 
	C134.246017,103.281303 134.246017,98.151482 134.642395,93.014908 
	C136.361053,93.007301 137.683350,93.006454 139.003128,93.003052 
	C139.000610,93.000488 138.996521,92.996353 138.831085,93.302612 
	C136.147034,96.158302 134.194122,98.684669 138.964386,100.936966 
	C138.979050,101.104973 138.993729,101.272987 138.733429,101.688293 
	C137.710159,101.989403 136.961899,102.043198 136.213623,102.097000 
	C136.437759,102.653282 136.661896,103.209572 136.886032,103.765862 
	C137.613831,103.138786 138.341614,102.511711 139.069412,101.884636 
z"/>
<path fill="#FF005B" opacity="1.000000" stroke="none" 
	d="
M136.206360,139.084915 
	C136.168747,140.745392 136.131119,142.405853 135.989319,144.707626 
	C136.166702,146.240738 136.448273,147.132553 136.729828,148.024368 
	C138.006622,152.673843 141.885986,152.053467 145.686493,152.135208 
	C149.455841,153.748245 147.405548,155.029938 145.413467,154.924438 
	C142.076508,154.747742 138.786285,153.688416 136.437790,153.200333 
	C133.832581,160.965240 131.065170,169.213531 127.742477,177.663437 
	C126.786064,177.215408 126.384949,176.565781 126.183151,175.756439 
	C126.560677,175.120560 126.738884,174.644409 126.966705,173.952759 
	C127.016319,173.737244 127.036476,173.295425 127.327118,173.163727 
	C128.017761,172.338242 128.417755,171.644440 128.977264,170.674347 
	C129.397491,169.593918 129.658203,168.789780 130.125854,167.699738 
	C130.502457,166.257233 130.672119,165.100616 130.926926,163.585510 
	C130.978607,162.495285 130.945129,161.763565 131.177155,160.921280 
	C131.656296,160.295410 131.869904,159.780106 132.083801,158.873810 
	C132.022705,157.714294 131.961319,156.945786 131.925156,155.792557 
	C131.947311,154.893982 131.944260,154.380142 131.941223,153.866287 
	C132.633209,141.837265 133.308304,129.807205 134.042038,117.780746 
	C134.119553,116.510315 134.541748,115.260918 135.735748,114.388145 
	C136.475677,119.893044 136.519791,125.035194 136.010254,130.121872 
	C135.663620,133.582397 137.378952,135.594238 140.159943,135.587402 
	C143.020279,135.580368 145.922882,134.203613 148.716873,133.180191 
	C150.233643,132.624603 151.562851,131.556870 152.976654,130.720154 
	C150.658508,138.433899 144.379242,138.972305 137.384705,138.709534 
	C136.468689,138.106812 136.023392,137.862305 135.578110,137.617813 
	C135.787521,138.106842 135.996933,138.595886 136.206360,139.084915 
z"/>
<path fill="#FF005B" opacity="1.000000" stroke="none" 
	d="
M61.987328,187.023148 
	C62.336487,186.033478 63.021004,184.465530 64.078140,184.151352 
	C65.638794,183.687531 67.464546,184.115662 69.907898,184.135925 
	C74.675568,183.939697 78.717133,183.581711 82.748245,183.675034 
	C85.134674,183.730270 87.504601,184.498352 90.191605,184.961441 
	C91.060020,184.909286 91.618767,184.841553 92.177521,184.773819 
	C92.184258,184.589905 92.191002,184.405975 92.197739,184.222061 
	C91.503067,184.142853 90.808395,184.063644 90.001175,183.734390 
	C89.913086,183.303162 89.937561,183.121979 89.962029,182.940811 
	C90.870323,182.471252 91.778625,182.001694 93.235817,181.212830 
	C94.837692,180.988663 95.890671,181.083817 96.943657,181.178955 
	C97.726524,181.504639 98.509399,181.830322 99.624573,182.491852 
	C100.320763,183.467056 100.684647,184.106415 101.423119,184.784973 
	C103.533615,184.553345 105.269516,184.282501 107.348053,183.985809 
	C109.508682,183.648590 111.326675,183.337189 113.409576,183.002594 
	C113.446289,182.007584 113.218094,181.035782 113.338058,180.055908 
	C114.460335,180.358521 115.234444,180.669189 116.023865,181.277191 
	C116.404228,181.950516 116.769295,182.326523 117.134354,182.702515 
	C117.435318,182.248230 117.736275,181.793930 118.391487,181.253876 
	C119.679657,180.932709 120.613571,180.697296 121.936272,180.826584 
	C122.612747,181.399948 122.900421,181.608627 123.188095,181.817307 
	C117.753563,183.560699 112.377304,186.549591 106.873268,186.807053 
	C92.107841,187.497818 77.287727,187.019592 61.987328,187.023148 
z"/>
<path fill="#FF005B" opacity="1.000000" stroke="none" 
	d="
M130.442123,80.601685 
	C137.188492,82.058830 140.901352,79.904091 141.077423,74.236877 
	C141.201950,70.229134 140.369110,66.755310 135.046524,67.217247 
	C141.023285,56.546017 141.023285,56.546017 136.357651,52.203911 
	C134.528259,53.639378 132.683441,55.086956 130.893219,56.491688 
	C131.788666,52.210609 132.575134,48.450481 133.609695,43.957699 
	C133.931992,42.650345 134.006210,42.075653 134.080429,41.500961 
	C136.207047,46.376251 140.579803,50.588531 141.566925,55.330502 
	C142.821503,61.357121 142.080902,67.835785 143.573257,74.158081 
	C144.112274,76.441597 140.859528,79.633949 139.302856,82.392273 
	C138.568253,83.693954 137.752945,84.950096 136.607300,86.562622 
	C135.126343,86.591248 134.024124,86.099365 132.895050,86.027122 
	C131.679810,85.949364 130.439392,86.265045 129.209961,86.409073 
	C130.873062,85.007065 131.861679,83.620941 129.369324,81.776672 
	C129.897324,81.020905 130.169724,80.811295 130.442123,80.601685 
z"/>
<path fill="#FF005B" opacity="1.000000" stroke="none" 
	d="
M122.654877,21.621284 
	C121.869873,22.064278 120.990906,22.443441 120.599075,22.156776 
	C110.907417,15.066080 105.293526,15.199496 95.947250,22.841810 
	C95.436546,23.259405 94.928413,23.680141 94.381760,24.130133 
	C94.659904,25.638281 94.937294,27.142342 95.355438,29.409605 
	C92.040848,26.371418 89.703842,22.974882 86.508301,21.651566 
	C83.285774,20.317074 79.211006,21.040575 75.247147,20.424667 
	C77.274307,19.130886 79.689018,17.340939 81.825691,17.627090 
	C85.472374,18.115471 88.944603,19.906534 92.898827,21.293785 
	C106.919991,11.618785 115.228767,11.494989 122.654877,21.621284 
z"/>
<path fill="#FF005B" opacity="1.000000" stroke="none" 
	d="
M26.658482,36.639374 
	C26.987514,40.393688 26.987514,43.801834 26.987514,47.263649 
	C29.933376,47.667179 32.264881,47.986553 34.596386,48.305931 
	C34.865124,48.809906 35.133865,49.313881 35.402607,49.817856 
	C24.209251,50.053974 15.763734,53.055439 16.790123,66.589066 
	C15.980774,67.219574 15.630996,67.312675 15.281218,67.405777 
	C13.051429,58.595665 15.364184,53.668995 22.953953,49.099068 
	C24.263773,44.129917 25.296612,40.211563 26.658482,36.639374 
z"/>
<path fill="#FF005B" opacity="1.000000" stroke="none" 
	d="
M34.520092,133.231873 
	C35.317146,137.998520 35.449551,142.549652 36.001694,147.049271 
	C37.082821,155.859741 38.398026,164.641510 39.299484,173.727402 
	C38.028885,173.219269 36.438225,172.558151 36.227654,171.595245 
	C35.097553,166.427475 33.907864,161.215439 33.505554,155.959976 
	C32.974289,149.019974 33.124043,142.025818 33.073120,135.054260 
	C33.068119,134.369614 33.705788,133.680252 34.520092,133.231873 
z"/>
<path fill="#FF005B" opacity="1.000000" stroke="none" 
	d="
M18.226334,68.903610 
	C20.303711,70.749168 22.129530,73.511009 24.532471,74.170708 
	C26.733023,74.774849 29.556967,73.108315 32.858238,72.836357 
	C23.229290,78.905342 18.137972,86.035301 25.407593,96.802193 
	C19.951826,94.894302 17.884245,88.347282 20.412167,82.162453 
	C21.081848,80.524010 22.109175,79.031754 22.895903,77.610359 
	C20.973633,75.587189 19.082623,73.596924 17.143576,70.958527 
	C17.472471,69.841476 17.849403,69.372543 18.226334,68.903610 
z"/>
<path fill="#FF005B" opacity="1.000000" stroke="none" 
	d="
M164.144409,106.982513 
	C163.269119,101.023918 162.187698,94.952423 156.173538,92.000931 
	C153.396744,90.638191 149.931320,90.370338 146.762131,90.297012 
	C145.768234,90.274017 144.722214,92.504807 143.078430,93.712166 
	C141.303391,93.479019 140.149963,93.237686 138.996521,92.996353 
	C138.996521,92.996353 139.000610,93.000488 138.994888,92.652725 
	C138.987350,91.837837 138.985535,91.370705 138.983719,90.903572 
	C149.330734,83.638603 161.778427,87.802773 165.353928,99.779823 
	C165.963272,101.821007 166.218552,103.967896 166.216476,106.509163 
	C165.245178,106.962425 164.694794,106.972473 164.144409,106.982513 
z"/>
<path fill="#FF005B" opacity="1.000000" stroke="none" 
	d="
M134.131134,41.027142 
	C133.782791,41.719368 133.438751,42.163063 133.300156,42.106182 
	C130.851120,41.101051 128.203644,38.891628 126.061874,39.310280 
	C124.006050,39.712135 122.480057,42.824471 120.010201,44.886749 
	C118.767395,44.964268 118.235626,44.900738 117.703850,44.837208 
	C121.817856,38.985321 125.423645,33.040348 122.159821,25.455256 
	C121.771660,24.553192 122.008461,23.382212 122.484924,22.405252 
	C124.436913,26.615383 125.859550,30.756142 127.587563,35.785725 
	C128.117355,36.030708 129.979248,36.891678 132.257294,38.148796 
	C133.125778,38.890888 133.578079,39.236828 134.030396,39.582767 
	C134.097275,39.903721 134.164169,40.224674 134.131134,41.027142 
z"/>
<path fill="#FF005B" opacity="1.000000" stroke="none" 
	d="
M52.037533,32.081898 
	C52.598858,34.654633 53.160179,37.227364 53.721504,39.800098 
	C47.105080,31.116753 39.749062,26.328440 29.264593,34.272339 
	C29.657364,32.691616 29.994448,30.882635 31.059248,30.186062 
	C36.092396,26.893475 41.384937,27.326853 46.766685,29.581955 
	C47.959213,30.081654 49.498070,29.754847 51.287910,29.748312 
	C51.698364,29.688021 51.997597,29.997341 52.001801,30.344887 
	C52.016518,31.155586 52.027027,31.618742 52.037533,32.081898 
z"/>
<path fill="#FF005B" opacity="1.000000" stroke="none" 
	d="
M74.744492,19.633858 
	C74.948357,20.503254 75.105057,21.310661 74.830208,21.503735 
	C70.693268,24.409834 67.699394,27.514454 72.076492,32.562050 
	C72.380394,32.912498 72.116219,33.755566 72.116219,36.070526 
	C66.911575,29.160046 61.455582,26.174341 53.580742,30.103987 
	C52.568165,30.100008 52.282883,30.048676 51.997597,29.997341 
	C51.997597,29.997341 51.698364,29.688021 51.562824,29.520542 
	C55.875114,25.005991 61.036480,24.929176 65.692909,26.578381 
	C68.885590,23.933825 71.691093,21.609980 74.744492,19.633858 
z"/>
<path fill="#FF176A" opacity="1.000000" stroke="none" 
	d="
M138.578156,90.957474 
	C138.985535,91.370705 138.987350,91.837837 138.997406,92.655289 
	C137.683350,93.006454 136.361053,93.007301 134.488586,92.660965 
	C132.292511,91.875923 130.646606,91.438057 128.673737,90.737076 
	C127.915497,89.719818 127.484215,88.965660 127.052933,88.211502 
	C127.052933,88.211502 127.217262,88.222931 127.670425,88.425858 
	C128.499100,87.906120 128.874588,87.183456 129.250092,86.460793 
	C129.250092,86.460793 129.249771,86.427681 129.229858,86.418381 
	C130.439392,86.265045 131.679810,85.949364 132.895050,86.027122 
	C134.024124,86.099365 135.126343,86.591248 136.546127,86.939911 
	C137.292114,88.324745 137.732361,89.668060 138.578156,90.957474 
z"/>
<path fill="#FF005B" opacity="1.000000" stroke="none" 
	d="
M161.140900,134.885483 
	C162.494797,128.908890 163.848694,122.932304 165.616623,117.234367 
	C165.229721,123.145729 164.428802,128.778442 162.894562,134.687225 
	C161.821136,134.937332 161.481018,134.911407 161.140900,134.885483 
z"/>
<path fill="#FF005B" opacity="1.000000" stroke="none" 
	d="
M33.619038,121.773804 
	C34.625507,121.990967 35.821007,122.468346 35.840744,122.990196 
	C35.953785,125.978897 35.787502,128.978165 35.353642,132.250305 
	C34.347317,132.014252 33.169239,131.522720 33.148148,130.985764 
	C33.031441,128.014816 33.196507,125.032776 33.619038,121.773804 
z"/>
<path fill="#FF005B" opacity="1.000000" stroke="none" 
	d="
M150.376801,151.488098 
	C152.461197,148.803162 154.455780,146.593246 157.134125,144.174805 
	C158.364746,143.871262 158.911606,143.776199 159.458466,143.681152 
	C159.458466,143.681152 159.583282,143.832199 159.551941,143.925308 
	C156.957855,147.265335 155.870590,152.227127 150.376801,151.488098 
z"/>
<path fill="#FF005B" opacity="1.000000" stroke="none" 
	d="
M166.425858,116.281311 
	C165.416718,116.130257 164.313171,115.823875 164.269653,115.406868 
	C164.080566,113.595032 164.200409,111.750954 164.581696,109.470413 
	C165.584579,109.020805 166.213745,109.019371 166.842896,109.017929 
	C166.835022,111.370316 166.827148,113.722694 166.425858,116.281311 
z"/>
<path fill="#FF005B" opacity="1.000000" stroke="none" 
	d="
M47.501328,180.552734 
	C50.356590,181.799683 52.712208,183.035492 54.791420,184.653122 
	C52.163193,184.519470 49.764351,184.141693 47.500401,183.368774 
	C47.063366,183.219574 47.154297,181.523895 47.501328,180.552734 
z"/>
<path fill="#FF005B" opacity="1.000000" stroke="none" 
	d="
M55.565056,185.402802 
	C57.875443,183.361038 59.946991,182.979645 60.588146,186.751373 
	C58.651150,186.631561 57.153049,186.209061 55.565056,185.402802 
z"/>
<path fill="#FF005B" opacity="1.000000" stroke="none" 
	d="
M38.561440,174.207001 
	C40.262428,175.546951 41.551075,177.089600 42.413998,178.829041 
	C40.708549,177.487091 39.428825,175.948395 38.561440,174.207001 
z"/>
<path fill="#FF176A" opacity="1.000000" stroke="none" 
	d="
M125.983833,175.916153 
	C126.384949,176.565781 126.786064,177.215408 127.494934,177.917862 
	C127.120544,178.704514 126.438385,179.438354 125.389709,179.897003 
	C124.569359,179.030701 124.115547,178.439575 123.692413,177.500656 
	C123.799385,176.694153 123.875687,176.235474 124.293350,175.746429 
	C125.084419,175.782791 125.534126,175.849472 125.983833,175.916153 
z"/>
<path fill="#FF005B" opacity="1.000000" stroke="none" 
	d="
M123.661743,177.848465 
	C124.115547,178.439575 124.569359,179.030701 125.097092,180.003082 
	C124.673424,180.843628 124.175850,181.302887 123.433182,181.789734 
	C122.900421,181.608627 122.612747,181.399948 122.150940,180.634354 
	C122.538467,179.334442 123.100105,178.591461 123.661743,177.848465 
z"/>
<path fill="#FF005B" opacity="1.000000" stroke="none" 
	d="
M41.951408,179.452789 
	C43.228970,179.189575 44.489143,179.370544 46.144859,179.763397 
	C45.703426,182.654114 45.220524,182.645905 41.951408,179.452789 
z"/>
<path fill="#FF176A" opacity="1.000000" stroke="none" 
	d="
M18.205105,68.622826 
	C17.849403,69.372543 17.472471,69.841476 17.052349,70.625412 
	C16.458990,69.987785 15.908825,69.035156 15.319939,67.744148 
	C15.630996,67.312675 15.980774,67.219574 16.862183,67.015411 
	C17.657169,67.383583 17.920523,67.862816 18.205105,68.622826 
z"/>
<path fill="#FF176A" opacity="1.000000" stroke="none" 
	d="
M166.910736,108.750328 
	C166.213745,109.019371 165.584579,109.020805 164.640991,109.028915 
	C164.230240,108.582108 164.133942,108.128632 164.091019,107.328835 
	C164.694794,106.972473 165.245178,106.962425 166.209900,106.931152 
	C166.742355,107.434204 166.860458,107.958466 166.910736,108.750328 
z"/>
<path fill="#FF005B" opacity="1.000000" stroke="none" 
	d="
M28.633785,33.605362 
	C28.576681,35.091309 28.161970,36.200005 27.363144,37.155647 
	C27.411411,35.744438 27.843794,34.486275 28.633785,33.605362 
z"/>
<path fill="#FF005B" opacity="1.000000" stroke="none" 
	d="
M161.397919,139.397583 
	C160.806137,138.464615 160.580414,137.417145 160.806702,136.367889 
	C161.688385,136.619583 162.118027,136.873062 162.547684,137.126541 
	C162.286438,137.845398 162.025192,138.564240 161.397919,139.397583 
z"/>
<path fill="#FF176A" opacity="1.000000" stroke="none" 
	d="
M162.719727,136.903778 
	C162.118027,136.873062 161.688385,136.619583 161.067780,136.038742 
	C160.751190,135.502106 160.757507,135.296906 161.018356,134.990631 
	C161.481018,134.911407 161.821136,134.937332 162.671494,135.002121 
	C163.085098,135.587646 162.988434,136.134338 162.719727,136.903778 
z"/>
<path fill="#FFFCFD" opacity="1.000000" stroke="none" 
	d="
M133.896164,39.422264 
	C133.578079,39.236828 133.125778,38.890888 132.618530,38.340172 
	C132.963043,38.510845 133.362488,38.886303 133.896164,39.422264 
z"/>
<path fill="#FF005B" opacity="1.000000" stroke="none" 
	d="
M147.210846,152.509949 
	C147.725540,151.889664 147.986984,151.810379 148.631973,151.587372 
	C149.282928,152.076813 149.550354,152.709991 149.817764,153.343155 
	C148.864365,153.245743 147.910980,153.148346 147.210846,152.509949 
z"/>
<path fill="#FF176A" opacity="1.000000" stroke="none" 
	d="
M134.060486,41.515427 
	C134.006210,42.075653 133.931992,42.650345 133.617126,43.588818 
	C133.270737,43.115326 133.165009,42.278057 133.527222,41.477333 
	C133.995163,41.513882 134.040543,41.529892 134.060486,41.515427 
z"/>
<path fill="#FF005B" opacity="1.000000" stroke="none" 
	d="
M45.145496,102.238121 
	C50.963509,99.007492 48.665794,93.802956 47.782963,88.093086 
	C56.356354,89.482613 62.201813,86.572594 63.624500,80.063286 
	C69.512970,78.913986 74.066948,78.025146 79.113213,77.307709 
	C79.736900,77.652534 79.868294,77.825966 79.991959,78.358147 
	C79.300354,79.482475 78.616478,80.248055 77.686661,81.026466 
	C74.475433,83.520630 71.526802,86.166992 67.890671,82.003433 
	C67.278717,82.664818 66.666771,83.326202 65.688782,84.005554 
	C64.545143,85.327103 63.767551,86.630684 62.680397,88.136566 
	C59.028614,90.491623 55.686390,92.644386 52.344166,94.797157 
	C52.608624,94.919540 52.873081,95.041924 53.137539,95.164307 
	C51.009968,98.079582 48.882397,100.994850 46.362396,103.482590 
	C45.695145,102.782745 45.420322,102.510437 45.145496,102.238121 
z"/>
<path fill="#FF005B" opacity="1.000000" stroke="none" 
	d="
M126.701790,88.161987 
	C127.484215,88.965660 127.915497,89.719818 128.560760,91.100357 
	C127.288536,91.867050 125.802307,92.007362 123.996468,92.119301 
	C123.131485,92.354485 122.586105,92.618042 121.803848,92.715546 
	C120.560478,92.117828 119.553993,91.686172 118.154457,91.178909 
	C117.230545,91.061829 116.699699,91.020370 115.953125,90.737793 
	C115.155525,90.240288 114.573654,89.983902 113.854156,89.546188 
	C113.489067,89.146858 113.219200,89.016899 112.829376,88.619728 
	C109.507385,87.205215 106.262955,86.145966 102.869415,84.804611 
	C101.063568,82.861145 99.406815,81.199776 97.750069,79.538406 
	C99.247124,77.830399 100.524605,76.739830 102.254135,79.548714 
	C103.102303,80.926201 105.106239,82.789436 106.243095,82.578522 
	C110.509560,81.787010 112.671066,84.432678 115.750687,86.400116 
	C118.518867,88.168571 122.759514,87.632187 126.701790,88.161987 
z"/>
<path fill="#FF005B" opacity="1.000000" stroke="none" 
	d="
M79.461792,77.186081 
	C80.535629,76.855247 82.435638,76.299324 82.862633,76.861740 
	C86.238121,81.307785 90.488892,81.991798 95.810989,80.751266 
	C96.097382,82.325996 96.037727,83.562637 95.637550,84.880882 
	C93.504471,84.963623 91.711906,84.964760 89.778748,84.948349 
	C89.638145,84.930809 89.356415,84.961258 89.220352,84.631882 
	C87.382019,83.511230 85.679756,82.719963 83.781242,81.662201 
	C82.389900,80.263611 81.194794,79.131508 79.999695,77.999397 
	C79.868294,77.825966 79.736900,77.652534 79.461792,77.186081 
z"/>
<path fill="#FF176A" opacity="1.000000" stroke="none" 
	d="
M95.978073,84.799278 
	C96.037727,83.562637 96.097382,82.325996 96.270386,80.629631 
	C96.711517,79.978615 97.039291,79.787323 97.558563,79.567215 
	C99.406815,81.199776 101.063568,82.861145 102.751480,85.103165 
	C102.306282,86.556313 101.829910,87.428795 101.353546,88.301285 
	C101.201881,87.561852 101.050209,86.822411 100.898544,86.082977 
	C99.258385,85.655075 97.618233,85.227173 95.978073,84.799278 
z"/>
<path fill="#FF005B" opacity="1.000000" stroke="none" 
	d="
M40.823425,100.022354 
	C42.091095,100.738388 43.358765,101.454430 44.885963,102.204300 
	C45.420322,102.510437 45.695145,102.782745 46.050110,103.677490 
	C41.975613,105.909004 39.760738,103.963066 38.932327,100.127113 
	C39.813938,100.065720 40.318680,100.044037 40.823425,100.022354 
z"/>
<path fill="#FF005B" opacity="1.000000" stroke="none" 
	d="
M129.174438,81.481262 
	C127.675140,80.344711 126.626305,78.957436 125.577469,77.570152 
	C126.024239,77.210609 126.471008,76.851074 126.917778,76.491531 
	C127.957115,77.665009 128.996460,78.838486 130.238953,80.306824 
	C130.169724,80.811295 129.897324,81.020905 129.174438,81.481262 
z"/>
<path fill="#FF176A" opacity="1.000000" stroke="none" 
	d="
M40.831635,99.758987 
	C40.318680,100.044037 39.813938,100.065720 38.661964,100.036316 
	C37.659210,99.935913 37.303680,99.886597 36.948154,99.837288 
	C37.924355,99.214561 38.900555,98.591843 40.243523,97.951614 
	C40.686810,98.454605 40.763325,98.975113 40.831635,99.758987 
z"/>
<path fill="#FF005B" opacity="1.000000" stroke="none" 
	d="
M128.991394,86.552010 
	C128.874588,87.183456 128.499100,87.906120 127.743019,88.386932 
	C127.819183,87.644470 128.275925,87.143845 128.991394,86.552010 
z"/>
<path fill="#FF176A" opacity="1.000000" stroke="none" 
	d="
M52.001801,30.344887 
	C52.282883,30.048676 52.568165,30.100008 53.269844,30.280558 
	C53.315464,30.877750 52.944687,31.345726 52.305721,31.947800 
	C52.027027,31.618742 52.016518,31.155586 52.001801,30.344887 
z"/>
<path fill="#FF005B" opacity="1.000000" stroke="none" 
	d="
M118.758949,46.530331 
	C118.081406,46.659504 117.403854,46.788677 116.726311,46.917847 
	C116.791435,46.290363 116.856560,45.662876 117.520538,45.421581 
	C118.332581,46.048622 118.545761,46.289474 118.758949,46.530331 
z"/>
<path fill="#FF176A" opacity="1.000000" stroke="none" 
	d="
M117.729614,44.867744 
	C118.235626,44.900738 118.767395,44.964268 119.702057,45.037590 
	C119.805740,45.453583 119.506531,45.859787 118.983139,46.398163 
	C118.545761,46.289474 118.332581,46.048622 117.901787,45.368980 
	C117.684181,44.930195 117.755386,44.898285 117.729614,44.867744 
z"/>
<path fill="#FFFBFC" opacity="1.000000" stroke="none" 
	d="
M152.945404,130.731262 
	C151.562851,131.556870 150.233643,132.624603 148.716873,133.180191 
	C145.922882,134.203613 143.020279,135.580368 140.159943,135.587402 
	C137.378952,135.594238 135.663620,133.582397 136.010254,130.121872 
	C136.519791,125.035194 136.475677,119.893044 136.317230,114.336029 
	C135.967026,113.897522 135.964264,113.930817 135.961487,113.958649 
	C136.255249,113.246971 136.869888,112.474098 136.796417,111.773376 
	C136.338501,107.406067 138.543976,105.138351 142.569992,104.634735 
	C146.703629,104.117661 150.126404,105.423950 151.918839,109.568993 
	C152.626282,111.204941 153.316818,112.848213 154.489700,114.462227 
	C154.964340,114.436310 154.943787,114.450836 154.517410,114.274490 
	C154.048553,116.906845 154.006088,119.715546 153.963623,122.524239 
	C153.934036,122.736107 153.925232,122.948837 153.571808,123.498322 
	C153.134277,126.066856 153.062164,128.299515 152.990036,130.532166 
	C152.990036,130.532166 152.914154,130.742371 152.945404,130.731262 
z"/>
<path fill="#FF186A" opacity="1.000000" stroke="none" 
	d="
M116.149490,146.894745 
	C115.374489,151.458038 112.595070,153.803955 108.644943,153.874329 
	C106.536469,153.911880 103.348076,152.781052 102.530167,151.202118 
	C101.435791,149.089447 101.099098,145.141647 102.381828,143.599487 
	C104.046173,141.598526 107.612900,140.349091 110.381264,140.312073 
	C113.684128,140.267899 116.066490,142.697693 116.149490,146.894745 
M108.601044,142.920090 
	C105.245796,142.947296 103.504387,144.780334 104.189880,147.940002 
	C104.492744,149.335938 106.823189,151.613815 107.429245,151.382751 
	C109.535004,150.579926 112.060890,149.241501 112.993591,147.386185 
	C114.365791,144.656631 112.143280,143.262741 108.601044,142.920090 
z"/>
<path fill="#FF2B77" opacity="1.000000" stroke="none" 
	d="
M100.248398,127.959030 
	C99.284035,127.586769 98.584404,127.385292 98.144699,126.931793 
	C95.577263,124.283760 95.197701,121.267593 97.597656,118.459114 
	C99.684525,116.017006 103.138634,114.371422 105.353958,116.963814 
	C106.691360,118.528862 105.963425,122.446770 105.173843,125.001595 
	C104.758652,126.344986 102.215469,127.030701 100.248398,127.959030 
z"/>
<path fill="#FF1C6D" opacity="1.000000" stroke="none" 
	d="
M79.205811,146.201233 
	C86.195702,147.174210 89.316414,152.158173 85.510124,156.057800 
	C83.982552,157.622849 80.453003,158.845322 78.672699,158.132050 
	C76.587730,157.296707 74.647804,154.378967 74.036507,152.006042 
	C73.207001,148.786133 75.725670,146.956497 79.205811,146.201233 
M76.768654,152.313782 
	C77.584885,155.076828 79.122803,156.876678 82.125679,155.279648 
	C83.046135,154.790100 83.904716,153.096771 83.791756,152.064056 
	C83.683487,151.074280 82.174507,149.395309 81.462822,149.483612 
	C79.817001,149.687820 78.281143,150.778259 76.768654,152.313782 
z"/>
<path fill="#FFE1EC" opacity="1.000000" stroke="none" 
	d="
M89.972542,182.974731 
	C89.937561,183.121979 89.913086,183.303162 89.945770,183.975357 
	C90.002922,184.466385 89.881943,184.945862 89.881943,184.945862 
	C87.504601,184.498352 85.134674,183.730270 82.748245,183.675034 
	C78.717133,183.581711 74.675568,183.939697 70.298126,183.867737 
	C69.690796,181.317490 70.317398,179.742081 73.498169,179.924286 
	C73.961929,179.963409 74.143974,180.117615 74.143974,180.117615 
	C74.288307,180.889496 74.432640,181.661377 74.576973,182.433258 
	C76.285446,181.682434 78.052483,181.038116 79.681374,180.142563 
	C80.731377,179.565277 81.578636,178.619232 82.516754,177.838455 
	C82.516754,179.061005 82.516754,180.283539 82.516754,181.845215 
	C83.422485,181.548752 84.154602,181.309128 85.519661,181.229446 
	C87.119324,181.592209 88.086052,181.794998 89.052773,181.997787 
	C89.052773,181.997787 88.996094,182.003571 88.974365,182.297211 
	C89.319252,182.725159 89.685875,182.859451 90.052505,182.993744 
	C90.052498,182.993759 89.983055,183.008636 89.972542,182.974731 
z"/>
<path fill="#FFDEEA" opacity="1.000000" stroke="none" 
	d="
M123.692413,177.500656 
	C123.100105,178.591461 122.538467,179.334442 121.762146,180.269653 
	C120.613571,180.697296 119.679657,180.932709 118.052765,181.193146 
	C116.909363,181.138733 116.458961,181.059296 116.008560,180.979858 
	C115.234444,180.669189 114.460335,180.358521 113.343033,179.713486 
	C113.980827,177.934265 114.961823,176.489410 115.971634,175.032104 
	C116.000450,175.019669 116.045036,174.975479 116.403198,174.973846 
	C118.188362,174.634415 119.615364,174.296616 121.042358,173.958801 
	C121.610031,173.491791 122.177711,173.024780 123.163986,172.286346 
	C124.071136,171.692902 124.559700,171.370880 125.403603,170.985107 
	C125.993759,170.868637 126.228592,170.815918 126.749466,170.804535 
	C127.629601,170.880783 128.223679,170.915710 128.817764,170.950638 
	C128.417755,171.644440 128.017761,172.338242 127.041260,173.128540 
	C126.191917,173.496094 125.919067,173.767166 125.427490,174.155960 
	C124.789833,174.774719 124.370903,175.275742 123.951981,175.776779 
	C123.875687,176.235474 123.799385,176.694153 123.692413,177.500656 
z"/>
<path fill="#FFE1EC" opacity="1.000000" stroke="none" 
	d="
M107.005432,184.011642 
	C105.269516,184.282501 103.533615,184.553345 101.448212,184.481232 
	C101.412735,183.183990 101.726761,182.229706 102.371262,181.186615 
	C103.457756,180.069580 104.213783,179.041336 104.969818,178.013092 
	C104.775909,176.218781 104.582008,174.424454 104.388115,172.630142 
	C104.755554,172.461151 105.122986,172.292145 105.490425,172.123154 
	C106.110298,173.572372 106.730164,175.021576 107.711334,177.010590 
	C108.694199,178.076279 109.315750,178.602142 109.841888,179.591385 
	C109.363243,180.551636 108.980019,181.048523 108.406029,181.639343 
	C107.250023,181.625549 106.284782,181.517822 104.487122,181.317169 
	C105.750710,182.669144 106.378067,183.340393 107.005432,184.011642 
z"/>
<path fill="#FFD7E5" opacity="1.000000" stroke="none" 
	d="
M108.022408,176.047470 
	C108.098206,174.813446 107.925735,173.489929 108.328072,172.373596 
	C108.652008,171.474747 109.670876,170.826340 110.721107,170.415405 
	C112.145683,170.763977 113.230576,170.763977 112.944252,170.763977 
	C114.594978,171.967850 115.315933,172.493637 116.036888,173.019424 
	C116.036888,173.019424 116.035133,172.975647 116.034737,173.316650 
	C116.037903,174.096924 116.041473,174.536209 116.045044,174.975479 
	C116.045036,174.975479 116.000450,175.019669 115.588791,175.054871 
	C114.450478,175.051697 113.723816,175.013306 112.917969,174.805069 
	C112.838783,174.635208 112.527344,174.426620 112.387741,174.193924 
	C111.848808,173.643692 111.449478,173.326157 110.876266,173.070374 
	C110.615120,173.216644 110.439163,173.348541 110.454918,173.378006 
	C110.561699,173.577896 110.708954,173.756180 110.943985,174.198486 
	C111.332603,174.671661 111.620361,174.887802 112.006767,175.338226 
	C112.386124,175.749802 112.666840,175.927094 112.912392,176.464951 
	C111.926872,177.188568 110.976517,177.551636 109.927216,177.638275 
	C109.226318,176.923721 108.624359,176.485596 108.022408,176.047470 
z"/>
<path fill="#FFC7DB" opacity="1.000000" stroke="none" 
	d="
M126.463425,170.763184 
	C126.228592,170.815918 125.993759,170.868637 125.173706,170.863586 
	C124.388481,170.529922 124.188484,170.254028 123.988480,169.978119 
	C124.005646,168.027512 124.022804,166.076889 124.216034,163.634064 
	C124.567169,163.089844 124.742233,163.037857 125.223343,163.093414 
	C127.300179,163.448654 129.070969,163.696335 130.841766,163.944016 
	C130.672119,165.100616 130.502457,166.257233 129.781433,167.696564 
	C128.241287,167.922958 127.252525,167.866608 125.987747,167.794525 
	C126.183388,169.015503 126.323410,169.889343 126.463425,170.763184 
z"/>
<path fill="#FFEDF3" opacity="1.000000" stroke="none" 
	d="
M130.926926,163.585510 
	C129.070969,163.696335 127.300179,163.448654 125.135597,162.791290 
	C124.486351,161.413834 124.230888,160.446030 123.975433,159.478226 
	C124.518845,158.913132 125.062271,158.348053 125.899460,157.938812 
	C127.766037,159.073715 129.338852,160.052780 130.911652,161.031845 
	C130.945129,161.763565 130.978607,162.495285 130.926926,163.585510 
z"/>
<path fill="#FFD7E5" opacity="1.000000" stroke="none" 
	d="
M97.003601,180.821960 
	C95.890671,181.083817 94.837692,180.988663 93.384987,180.929871 
	C94.862595,178.890274 96.739922,176.814316 98.617249,174.738358 
	C99.031059,175.056885 99.444878,175.375412 99.858688,175.693939 
	C98.926979,177.284286 97.995262,178.874619 97.003601,180.821960 
z"/>
<path fill="#FF176A" opacity="1.000000" stroke="none" 
	d="
M131.177155,160.921280 
	C129.338852,160.052780 127.766037,159.073715 126.084030,157.792557 
	C125.918976,157.283096 125.863129,157.075729 125.930244,156.407959 
	C126.053207,155.947540 126.335144,155.671448 126.335144,155.671448 
	C127.209145,155.457306 128.083145,155.243164 129.483505,155.475449 
	C130.236801,156.173996 130.463760,156.426132 130.466125,156.977036 
	C130.855530,157.938797 131.469528,158.601807 132.083527,159.264816 
	C131.869904,159.780106 131.656296,160.295410 131.177155,160.921280 
z"/>
<path fill="#FF1C6D" opacity="1.000000" stroke="none" 
	d="
M116.242973,172.732574 
	C115.315933,172.493637 114.594978,171.967850 112.944252,170.763977 
	C113.230576,170.763977 112.145683,170.763977 111.094200,170.415100 
	C115.084755,168.017181 116.508743,168.653931 116.242973,172.732574 
z"/>
<path fill="#FFC8DC" opacity="1.000000" stroke="none" 
	d="
M116.403198,174.973846 
	C116.041473,174.536209 116.037903,174.096924 116.053238,173.328400 
	C117.503769,173.216171 118.935402,173.433212 120.704697,173.804535 
	C119.615364,174.296616 118.188362,174.634415 116.403198,174.973846 
z"/>
<path fill="#FF347D" opacity="1.000000" stroke="none" 
	d="
M123.673294,159.653961 
	C124.230888,160.446030 124.486351,161.413834 124.829559,162.683762 
	C124.742233,163.037857 124.567169,163.089844 124.172104,163.305313 
	C123.132118,162.804703 122.312119,162.140610 121.492119,161.476532 
	C122.118462,160.927582 122.744804,160.378632 123.673294,159.653961 
z"/>
<path fill="#FF1C6D" opacity="1.000000" stroke="none" 
	d="
M104.607788,178.005661 
	C104.213783,179.041336 103.457756,180.069580 102.181961,181.049011 
	C101.662193,181.000183 101.197174,180.947647 101.197174,180.947647 
	C101.360382,180.293945 101.523598,179.640228 101.731171,178.599915 
	C101.775528,178.213287 102.082436,177.909744 102.082436,177.909729 
	C102.803543,177.939240 103.524651,177.968735 104.607788,178.005661 
z"/>
<path fill="#FFD7E5" opacity="1.000000" stroke="none" 
	d="
M87.975739,178.513229 
	C88.701637,177.646378 89.427536,176.779510 90.551514,175.932739 
	C90.949585,175.952805 91.150314,176.118057 91.150314,176.118057 
	C90.630211,177.002319 90.110115,177.886581 89.016357,178.807907 
	C88.287048,178.734406 88.131393,178.623825 87.975739,178.513229 
z"/>
<path fill="#FF2B77" opacity="1.000000" stroke="none" 
	d="
M87.582771,178.588394 
	C88.131393,178.623825 88.287048,178.734406 88.718246,178.923050 
	C89.076111,179.749054 89.158424,180.496979 89.146759,181.621338 
	C88.086052,181.794998 87.119324,181.592209 85.819756,181.203690 
	C86.054543,180.233170 86.622177,179.448364 87.582771,178.588394 
z"/>
<path fill="#FFC2D8" opacity="1.000000" stroke="none" 
	d="
M100.913048,181.057739 
	C101.197174,180.947647 101.662193,181.000183 101.851486,181.137802 
	C101.726761,182.229706 101.412735,183.183990 101.073624,184.442017 
	C100.684647,184.106415 100.320763,183.467056 99.957024,182.490707 
	C100.181091,181.825089 100.405006,181.496460 100.913048,181.057739 
z"/>
<path fill="#FFE1EC" opacity="1.000000" stroke="none" 
	d="
M73.870178,179.887177 
	C74.404495,178.893112 75.030571,177.975296 75.656647,177.057480 
	C76.276199,177.608582 76.895752,178.159683 77.515305,178.710800 
	C76.567261,179.073410 75.619209,179.436020 74.407570,179.958115 
	C74.143974,180.117615 73.961929,179.963409 73.870178,179.887177 
z"/>
<path fill="#FF2B77" opacity="1.000000" stroke="none" 
	d="
M108.002419,176.286469 
	C108.624359,176.485596 109.226318,176.923721 109.909485,177.941956 
	C109.972900,178.724045 109.955109,178.926041 109.937309,179.128021 
	C109.315750,178.602142 108.694199,178.076279 107.949837,177.264832 
	C107.827034,176.979248 107.982430,176.525467 108.002419,176.286469 
z"/>
<path fill="#FF176A" opacity="1.000000" stroke="none" 
	d="
M131.637650,153.882263 
	C131.944260,154.380142 131.947311,154.893982 131.697113,155.794861 
	C131.145447,156.275482 130.894394,156.440933 130.690720,156.678268 
	C130.463760,156.426132 130.236801,156.173996 129.702301,155.514816 
	C130.041199,154.704590 130.687653,154.301422 131.637650,153.882263 
z"/>
<path fill="#FFC8DC" opacity="1.000000" stroke="none" 
	d="
M123.776184,169.935608 
	C124.188484,170.254028 124.388481,170.529922 124.818375,170.927338 
	C124.559700,171.370880 124.071136,171.692902 123.272781,172.026642 
	C122.934212,171.625351 122.905426,171.212326 122.932755,170.403595 
	C122.988853,170.007874 123.134460,169.837357 123.134460,169.837357 
	C123.134460,169.837357 123.563889,169.893112 123.776184,169.935608 
z"/>
<path fill="#FFC8DC" opacity="1.000000" stroke="none" 
	d="
M120.796768,169.238571 
	C120.431938,168.769135 120.067116,168.299698 119.702301,167.830231 
	C120.187325,167.915329 120.672348,168.000427 121.096817,168.513123 
	C121.036270,168.940720 120.796768,169.238571 120.796768,169.238571 
z"/>
<path fill="#FFC8DC" opacity="1.000000" stroke="none" 
	d="
M121.143311,168.782410 
	C121.767586,168.871017 122.284813,169.117935 122.968246,169.601105 
	C123.134460,169.837357 122.988853,170.007874 122.913536,170.093948 
	C122.291641,170.006836 121.745056,169.833649 120.997620,169.449509 
	C120.796768,169.238571 121.036270,168.940720 121.143311,168.782410 
z"/>
<path fill="#FFD7E5" opacity="1.000000" stroke="none" 
	d="
M100.654892,173.658447 
	C100.844986,173.510849 101.148529,173.529648 101.452065,173.548447 
	C101.224152,173.640579 100.996246,173.732727 100.654892,173.658447 
z"/>
<path fill="#FFD7E5" opacity="1.000000" stroke="none" 
	d="
M90.848602,175.870911 
	C90.983818,175.378983 91.220016,174.968933 91.456207,174.558884 
	C91.482819,174.969345 91.509415,175.379791 91.343170,175.954163 
	C91.150314,176.118057 90.949585,175.952805 90.848602,175.870911 
z"/>
<path fill="#FF1C6D" opacity="1.000000" stroke="none" 
	d="
M101.611099,178.353088 
	C101.330475,178.074829 101.214294,177.656769 101.098106,177.238693 
	C101.361465,177.265976 101.624817,177.293243 101.985306,177.615128 
	C102.082436,177.909744 101.775528,178.213287 101.611099,178.353088 
z"/>
<path fill="#FF176A" opacity="1.000000" stroke="none" 
	d="
M125.912941,156.086304 
	C125.601036,155.920425 125.429405,155.615799 125.257767,155.311172 
	C125.508636,155.286362 125.759514,155.261566 126.172760,155.454102 
	C126.335144,155.671448 126.053207,155.947540 125.912941,156.086304 
z"/>
<path fill="#FF2B77" opacity="1.000000" stroke="none" 
	d="
M90.128540,182.646286 
	C89.685875,182.859451 89.319252,182.725159 88.979454,182.269180 
	C89.405708,182.064621 89.805138,182.181732 90.128540,182.646286 
z"/>
<path fill="#FF176A" opacity="1.000000" stroke="none" 
	d="
M138.831085,93.302612 
	C140.149963,93.237686 141.303391,93.479019 142.714111,93.852524 
	C142.953247,94.145523 142.982758,94.333076 142.909836,94.463211 
	C141.757858,96.518776 140.592728,98.566971 139.197495,100.776909 
	C134.194122,98.684669 136.147034,96.158302 138.831085,93.302612 
z"/>
<path fill="#FF005B" opacity="1.000000" stroke="none" 
	d="
M154.420319,122.776810 
	C154.006088,119.715546 154.048553,116.906845 154.534149,114.292030 
	C154.943848,117.333733 154.910431,120.181564 154.420319,122.776810 
z"/>
<path fill="#FF005B" opacity="1.000000" stroke="none" 
	d="
M153.378479,130.358948 
	C153.062164,128.299515 153.134277,126.066856 153.591263,123.657005 
	C153.906387,125.715118 153.836655,127.950424 153.378479,130.358948 
z"/>
<path fill="#FF176A" opacity="1.000000" stroke="none" 
	d="
M136.924896,147.690826 
	C136.448273,147.132553 136.166702,146.240738 136.012909,145.055069 
	C136.467117,145.626572 136.793533,146.491928 136.924896,147.690826 
z"/>
<path fill="#FF176A" opacity="1.000000" stroke="none" 
	d="
M136.415741,139.084335 
	C135.996933,138.595886 135.787521,138.106842 135.578110,137.617813 
	C136.023392,137.862305 136.468689,138.106812 136.961441,138.633713 
	C137.008911,138.916122 136.625137,139.083755 136.415741,139.084335 
z"/>
<path fill="#FF176A" opacity="1.000000" stroke="none" 
	d="
M159.648254,143.292831 
	C158.911606,143.776199 158.364746,143.871262 157.404984,143.981567 
	C157.598450,143.198303 158.204819,142.399780 158.811172,141.601257 
	C159.153458,142.035675 159.495743,142.470093 159.648254,143.292831 
z"/>
<path fill="#FFF6F9" opacity="1.000000" stroke="none" 
	d="
M36.875519,100.302765 
	C37.303680,99.886597 37.659210,99.935913 38.285095,100.076027 
	C39.760738,103.963066 41.975613,105.909004 46.442535,104.105026 
	C48.882397,100.994850 51.009968,98.079582 53.137539,95.164307 
	C52.873081,95.041924 52.608624,94.919540 52.344166,94.797157 
	C55.686390,92.644386 59.028614,90.491623 63.048172,88.176056 
	C65.362793,87.594643 67.000076,87.176033 69.297791,86.588577 
	C67.788689,85.378220 66.921753,84.682907 66.054817,83.987595 
	C66.666771,83.326202 67.278717,82.664818 67.890671,82.003433 
	C71.526802,86.166992 74.475433,83.520630 77.878769,81.335342 
	C80.203705,81.730476 82.090599,81.829582 83.977486,81.928688 
	C85.679756,82.719963 87.382019,83.511230 89.096123,84.857864 
	C89.378418,85.264107 89.648888,85.115005 89.919350,84.965897 
	C91.711906,84.964760 93.504471,84.963623 95.637550,84.880882 
	C97.618233,85.227173 99.258385,85.655075 100.898544,86.082977 
	C101.050209,86.822411 101.201881,87.561852 101.353546,88.301285 
	C101.829910,87.428795 102.306282,86.556313 102.900581,85.385269 
	C106.262955,86.145966 109.507385,87.205215 112.558228,88.727341 
	C112.907013,89.369308 113.449402,89.548409 113.991783,89.727509 
	C114.573654,89.983902 115.155525,90.240288 115.940147,91.042793 
	C116.944435,91.477448 117.745979,91.365982 118.547516,91.254517 
	C119.553993,91.686172 120.560478,92.117828 121.833534,93.053024 
	C122.651001,93.983757 123.201881,94.410934 123.752769,94.838120 
	C123.940544,93.941307 124.128311,93.044487 124.316078,92.147675 
	C125.802307,92.007362 127.288536,91.867050 128.887726,91.363464 
	C130.646606,91.438057 132.292511,91.875923 134.092224,92.667725 
	C134.246017,98.151482 134.246017,103.281303 134.246017,108.538834 
	C101.529648,108.538834 69.251579,108.538834 36.431549,108.538834 
	C36.569027,105.661980 36.685959,103.215103 36.875519,100.302765 
z"/>
<path fill="#FF176A" opacity="1.000000" stroke="none" 
	d="
M139.045609,101.931732 
	C138.341614,102.511711 137.613831,103.138786 136.886032,103.765862 
	C136.661896,103.209572 136.437759,102.653282 136.213623,102.097000 
	C136.961899,102.043198 137.710159,101.989403 138.788147,101.935280 
	C139.117874,101.934959 139.021805,101.978821 139.045609,101.931732 
z"/>
<path fill="#FFFAFC" opacity="1.000000" stroke="none" 
	d="
M126.749474,170.804535 
	C126.323410,169.889343 126.183388,169.015503 125.987747,167.794525 
	C127.252525,167.866608 128.241287,167.922958 129.574478,167.982468 
	C129.658203,168.789780 129.397491,169.593918 128.977264,170.674347 
	C128.223679,170.915710 127.629601,170.880783 126.749474,170.804535 
z"/>
<path fill="#FF89B3" opacity="1.000000" stroke="none" 
	d="
M130.466125,156.977036 
	C130.894394,156.440933 131.145447,156.275482 131.671906,156.179596 
	C131.961319,156.945786 132.022705,157.714294 132.083801,158.873810 
	C131.469528,158.601807 130.855530,157.938797 130.466125,156.977036 
z"/>
<path fill="#FFC8DC" opacity="1.000000" stroke="none" 
	d="
M124.293350,175.746429 
	C124.370903,175.275742 124.789833,174.774719 125.743462,174.208557 
	C126.491150,174.151718 126.704124,174.159988 126.917084,174.168259 
	C126.738884,174.644409 126.560677,175.120560 126.183151,175.756439 
	C125.534126,175.849472 125.084419,175.782791 124.293350,175.746429 
z"/>
<path fill="#FF176A" opacity="1.000000" stroke="none" 
	d="
M126.966705,173.952759 
	C126.704124,174.159988 126.491150,174.151718 125.962189,174.090851 
	C125.919067,173.767166 126.191917,173.496094 126.750626,173.260223 
	C127.036476,173.295425 127.016319,173.737244 126.966705,173.952759 
z"/>
<path fill="#FF1C6D" opacity="1.000000" stroke="none" 
	d="
M109.841888,179.591385 
	C109.955109,178.926041 109.972900,178.724045 110.008438,178.218369 
	C110.976517,177.551636 111.926872,177.188568 112.933945,176.182953 
	C112.992828,175.351883 112.994995,175.163406 112.997154,174.974930 
	C113.723816,175.013306 114.450478,175.051697 115.559982,175.067322 
	C114.961823,176.489410 113.980827,177.934265 112.994865,179.721542 
	C113.218094,181.035782 113.446289,182.007584 113.217941,182.597839 
	C111.373199,181.992645 109.984993,181.769028 108.596802,181.545410 
	C108.980019,181.048523 109.363243,180.551636 109.841888,179.591385 
z"/>
<path fill="#FFC2D8" opacity="1.000000" stroke="none" 
	d="
M108.406021,181.639343 
	C109.984993,181.769028 111.373199,181.992645 112.953033,182.621033 
	C111.326675,183.337189 109.508682,183.648590 107.348053,183.985809 
	C106.378067,183.340393 105.750710,182.669144 104.487122,181.317169 
	C106.284782,181.517822 107.250023,181.625549 108.406021,181.639343 
z"/>
<path fill="#FF176A" opacity="1.000000" stroke="none" 
	d="
M116.023865,181.277191 
	C116.458961,181.059296 116.909363,181.138733 117.698502,181.278900 
	C117.736275,181.793930 117.435318,182.248230 117.134354,182.702515 
	C116.769295,182.326523 116.404228,181.950516 116.023865,181.277191 
z"/>
<path fill="#FF176A" opacity="1.000000" stroke="none" 
	d="
M90.191605,184.961441 
	C89.881943,184.945862 90.002922,184.466385 90.058319,184.225418 
	C90.808395,184.063644 91.503067,184.142853 92.197739,184.222061 
	C92.191002,184.405975 92.184258,184.589905 92.177521,184.773819 
	C91.618767,184.841553 91.060020,184.909286 90.191605,184.961441 
z"/>
<path fill="#FF176A" opacity="1.000000" stroke="none" 
	d="
M65.688782,84.005562 
	C66.921753,84.682907 67.788689,85.378220 69.297791,86.588577 
	C67.000076,87.176033 65.362793,87.594643 63.357727,87.973755 
	C63.767551,86.630684 64.545143,85.327103 65.688782,84.005562 
z"/>
<path fill="#FF176A" opacity="1.000000" stroke="none" 
	d="
M83.781242,81.662201 
	C82.090599,81.829582 80.203705,81.730476 78.124710,81.322510 
	C78.616478,80.248055 79.300354,79.482475 79.991959,78.358147 
	C81.194794,79.131508 82.389900,80.263611 83.781242,81.662201 
z"/>
<path fill="#FF176A" opacity="1.000000" stroke="none" 
	d="
M123.996468,92.119301 
	C124.128311,93.044487 123.940544,93.941307 123.752769,94.838120 
	C123.201881,94.410934 122.651001,93.983757 122.070419,93.219086 
	C122.586105,92.618042 123.131485,92.354485 123.996468,92.119301 
z"/>
<path fill="#FF176A" opacity="1.000000" stroke="none" 
	d="
M118.154457,91.178902 
	C117.745979,91.365982 116.944435,91.477448 116.155869,91.283905 
	C116.699699,91.020370 117.230545,91.061829 118.154457,91.178902 
z"/>
<path fill="#FF176A" opacity="1.000000" stroke="none" 
	d="
M113.854156,89.546188 
	C113.449402,89.548409 112.907013,89.369308 112.635773,89.082596 
	C113.219200,89.016899 113.489067,89.146858 113.854156,89.546188 
z"/>
<path fill="#FF176A" opacity="1.000000" stroke="none" 
	d="
M89.778748,84.948349 
	C89.648888,85.115005 89.378418,85.264107 89.232185,85.187241 
	C89.356415,84.961258 89.638145,84.930809 89.778748,84.948349 
z"/>
<path fill="#FFF3F7" opacity="1.000000" stroke="none" 
	d="
M109.020828,142.942383 
	C112.143280,143.262741 114.365791,144.656631 112.993591,147.386185 
	C112.060890,149.241501 109.535004,150.579926 107.429245,151.382751 
	C106.823189,151.613815 104.492744,149.335938 104.189880,147.940002 
	C103.504387,144.780334 105.245796,142.947296 109.020828,142.942383 
z"/>
<path fill="#FFF3F7" opacity="1.000000" stroke="none" 
	d="
M76.734673,151.911530 
	C78.281143,150.778259 79.817001,149.687820 81.462822,149.483612 
	C82.174507,149.395309 83.683487,151.074280 83.791756,152.064056 
	C83.904716,153.096771 83.046135,154.790100 82.125679,155.279648 
	C79.122803,156.876678 77.584885,155.076828 76.734673,151.911530 
z"/>
<path fill="#FF347D" opacity="1.000000" stroke="none" 
	d="
M111.908127,175.103943 
	C111.620361,174.887802 111.332603,174.671661 111.019379,173.970520 
	C110.993919,173.485519 111.050148,173.008621 111.050148,173.008621 
	C111.449478,173.326157 111.848808,173.643692 112.223053,174.357330 
	C112.197960,174.753448 111.908127,175.103943 111.908127,175.103943 
z"/>
<path fill="#FF347D" opacity="1.000000" stroke="none" 
	d="
M112.917969,174.805069 
	C112.994995,175.163406 112.992828,175.351883 112.969116,175.822388 
	C112.666840,175.927094 112.386124,175.749802 112.006767,175.338226 
	C111.908127,175.103943 112.197960,174.753448 112.362656,174.590027 
	C112.527344,174.426620 112.838783,174.635208 112.917969,174.805069 
z"/>
<path fill="#FFFAFC" opacity="1.000000" stroke="none" 
	d="
M110.876266,173.070374 
	C111.050148,173.008621 110.993919,173.485519 110.918518,173.713470 
	C110.708954,173.756180 110.561699,173.577896 110.454918,173.378006 
	C110.439163,173.348541 110.615120,173.216644 110.876266,173.070374 
z"/>
</svg>