<svg version="1.1" id="Layer_1" xmlns="http://www.w3.org/2000/svg" xmlns:xlink="http://www.w3.org/1999/xlink" x="0px" y="0px"
	 width="100%" viewBox="0 0 179 200" enable-background="new 0 0 179 200" xml:space="preserve">
<path fill="#000000" opacity="1.000000" stroke="none" 
	d="
M180.000000,75.000000 
	C180.000000,116.139832 179.971375,156.779724 180.063477,197.419357 
	C180.069717,200.169434 179.800842,201.108414 176.584885,201.100647 
	C119.123161,200.962051 61.660957,200.971680 4.199117,201.083603 
	C1.323713,201.089203 0.926445,200.371674 0.930154,197.703156 
	C1.019745,133.245834 1.017810,68.788345 0.935341,4.331014 
	C0.932018,1.733222 1.216057,0.906145 4.164959,0.912193 
	C61.793331,1.030396 119.422043,1.022278 177.050491,0.927918 
	C179.668961,0.923630 180.065109,1.666351 180.055756,4.046879 
	C179.963501,27.530964 180.000000,51.015553 180.000000,75.000000 
z"/>
<path fill="#FF005A" opacity="1.000000" stroke="none" 
	d="
M139.627655,82.861496 
	C135.777634,84.679565 137.265030,87.744217 137.003937,91.049599 
	C142.574326,87.344315 148.080536,85.895294 154.340302,87.707932 
	C162.706879,90.130623 166.257462,96.421677 166.834351,104.091431 
	C167.760757,116.408325 167.493912,128.783417 162.005798,140.338989 
	C158.766983,147.158569 154.570114,152.688309 146.794052,155.263565 
	C142.252228,156.767685 139.399170,153.803604 135.315552,153.141861 
	C134.809860,158.108032 134.128998,163.041031 133.255356,167.934601 
	C131.196213,179.468475 120.518799,185.747330 110.665390,187.048843 
	C95.759468,189.017731 80.784683,188.210556 65.901062,187.713638 
	C57.223385,187.423950 48.102665,186.687927 40.881989,179.646423 
	C34.557465,173.478790 33.404308,165.830536 33.161350,158.113663 
	C32.637310,141.469086 32.989769,124.796577 33.018105,108.135551 
	C33.020592,106.674507 32.788013,105.211723 33.590374,103.760841 
	C34.571453,101.986786 33.883827,101.054482 31.776241,100.987167 
	C21.566906,100.661140 15.026213,89.124146 21.346952,79.304131 
	C22.296484,77.828918 22.511992,77.630035 20.972178,76.279739 
	C10.889842,67.438354 11.273506,56.795391 22.029854,49.108955 
	C24.426481,47.396332 23.953644,45.518375 23.971846,43.514610 
	C24.091379,30.355362 35.765266,23.430059 47.282902,29.741093 
	C48.847832,30.598587 50.106705,30.713732 51.453510,29.119343 
	C54.882675,25.059792 59.235462,23.988697 64.264259,25.713993 
	C66.210335,26.381660 67.018143,25.401819 68.130196,23.821924 
	C73.276047,16.511175 82.270309,14.641338 89.782867,19.497643 
	C91.737305,20.761038 92.453011,20.666012 94.281677,19.456272 
	C98.736473,16.509230 103.243202,14.158297 109.085922,13.753795 
	C118.311905,13.115063 126.546188,22.244255 126.927223,31.107300 
	C127.028961,33.473709 127.488251,34.843288 129.778854,36.052120 
	C133.827530,38.188744 136.776108,41.508156 136.959671,46.443119 
	C137.015121,47.934254 137.650101,48.537323 138.788132,49.465378 
	C143.128250,53.004715 144.125916,57.774948 141.873688,63.208187 
	C141.316620,64.552078 141.187851,65.298279 142.033417,66.682938 
	C145.677933,72.651024 144.923492,77.461555 139.627655,82.861496 
z"/>
<path fill="#000000" opacity="1.000000" stroke="none" 
	d="
M138.976532,56.476990 
	C139.494736,60.098648 138.501129,62.642246 135.874161,64.680656 
	C133.934265,66.185913 133.455383,67.885231 136.731293,67.936974 
	C140.789261,68.001068 140.442642,71.428154 140.826736,73.579147 
	C141.401245,76.796524 139.055832,79.309647 136.414474,80.684013 
	C134.089935,81.893570 131.608688,80.738869 129.603241,79.047913 
	C128.466110,78.089088 128.440811,74.534874 125.981422,76.767303 
	C123.810638,78.737755 126.456650,80.404823 127.534210,82.044441 
	C128.294144,83.200775 130.186371,82.810310 130.551666,84.434242 
	C124.880661,89.323471 121.028526,90.547867 113.122849,83.523956 
	C111.718468,82.276215 110.359299,81.853340 108.649162,82.003036 
	C105.882790,82.245163 103.537720,82.061935 102.211143,78.876328 
	C101.421761,76.980713 100.048798,76.908478 97.915459,78.364326 
	C92.336708,82.171432 88.482895,81.706612 83.552902,76.908623 
	C81.563629,74.972610 79.965790,74.857559 78.133865,76.477730 
	C74.951637,79.292099 71.524673,79.727318 67.612251,78.269318 
	C65.230690,77.381821 63.589794,78.225967 62.614361,80.762207 
	C60.621239,85.944534 56.531265,88.221786 51.153095,87.940102 
	C48.264080,87.788795 47.825649,89.119614 47.974567,91.472557 
	C48.100597,93.463829 47.824623,95.488274 48.037743,97.464485 
	C48.355816,100.413895 46.149181,101.478996 44.232552,101.723801 
	C42.392612,101.958809 40.967754,100.190720 41.039898,98.098213 
	C41.150970,94.876457 40.130062,94.229721 37.307091,95.903954 
	C31.297159,99.468285 25.863089,95.914009 23.642328,92.126602 
	C21.283573,88.103851 23.061871,81.307777 27.384052,77.927452 
	C28.284771,77.223015 29.277285,76.637238 30.201769,75.961571 
	C31.397232,75.087868 34.017010,74.761543 32.728958,72.670303 
	C31.793467,71.151466 29.760509,71.941437 28.299002,72.943436 
	C25.585674,74.803658 23.370623,73.613960 21.273699,71.762108 
	C17.888287,68.772369 16.308281,62.809856 18.371796,58.358669 
	C20.379759,54.027313 23.477730,50.816711 28.972561,50.896870 
	C30.927044,50.925385 34.421452,52.462910 34.721813,49.452629 
	C35.073444,45.928524 31.429638,47.329033 29.370445,46.976593 
	C27.504133,46.657166 27.106022,45.459953 26.974054,43.777554 
	C26.584930,38.816730 30.568840,33.271778 35.865688,31.606260 
	C41.389507,29.869381 46.539658,31.836012 49.294617,36.693272 
	C50.243385,38.366035 50.879986,40.360008 53.301151,40.934612 
	C54.446075,39.910263 53.868809,38.527916 53.955822,37.315876 
	C54.107681,35.200520 49.734356,33.164841 54.183384,30.880117 
	C58.308151,28.761915 62.174637,27.913084 66.150230,30.744352 
	C67.489876,31.698393 68.578575,33.016113 69.733559,34.214279 
	C70.535179,35.045868 71.590164,35.300068 72.418205,34.745468 
	C73.373306,34.105762 72.943085,33.037701 72.581688,32.056793 
	C70.288574,25.832830 70.801849,24.099924 75.502060,21.832216 
	C80.794136,19.278948 88.093399,21.087715 90.920555,25.701447 
	C91.425697,26.525805 91.623436,27.536446 92.114487,28.372118 
	C92.610298,29.215881 93.315338,30.289680 94.411362,29.799452 
	C95.372314,29.369640 96.561523,28.568659 95.551308,27.089975 
	C94.813499,26.010021 94.884148,25.027391 95.602531,23.885683 
	C98.558327,19.188137 108.241699,16.948835 114.953346,18.858986 
	C119.852844,20.253393 123.786499,27.543760 122.941521,33.186310 
	C122.374222,36.974548 120.504463,40.245903 117.630203,42.841751 
	C116.116745,44.208611 115.045998,46.103779 116.508011,47.547459 
	C118.080551,49.100262 119.387131,47.056000 120.519768,45.948273 
	C121.348328,45.137932 122.394455,44.369328 122.817688,43.361301 
	C123.830147,40.949905 125.245003,38.456364 127.962318,39.222534 
	C130.877792,40.044575 132.642273,42.771633 132.965347,45.964203 
	C133.233795,48.616936 133.045288,51.186981 131.139114,53.416122 
	C130.492447,54.172382 128.269699,54.761562 129.988098,56.380554 
	C131.413284,57.723270 132.954254,57.042759 133.774826,55.643108 
	C135.924347,51.976688 137.471207,53.060318 138.976532,56.476990 
z"/>
<path fill="#000000" opacity="1.000000" stroke="none" 
	d="
M68.176437,182.822052 
	C68.500160,181.705704 68.959167,180.984177 68.768913,180.541977 
	C68.518021,179.958786 67.778397,179.902161 67.133301,180.401428 
	C66.383400,180.981781 65.562424,181.470276 64.424736,182.038086 
	C63.765419,182.129929 63.453655,182.182327 63.235184,181.769806 
	C64.059799,180.476608 64.293060,179.420578 63.751667,178.557846 
	C63.138420,177.580582 62.384457,178.277176 61.705898,178.794205 
	C59.484341,180.486954 58.223156,184.210648 54.435093,182.723434 
	C49.157478,180.651459 43.710083,178.946594 40.634922,173.328323 
	C38.703091,169.798904 37.536415,166.084854 37.107918,162.282822 
	C35.583202,148.754257 35.959888,135.144638 36.038998,121.558243 
	C36.054157,118.954521 37.139622,116.486893 37.121338,113.782127 
	C37.100513,110.701164 39.864136,112.070229 41.345116,112.064789 
	C65.974045,111.974174 90.603409,112.000107 115.232674,112.000061 
	C120.058678,112.000053 124.900002,112.235374 129.705627,111.922523 
	C133.259827,111.691154 134.325943,112.858612 134.050583,116.344696 
	C133.106232,128.300125 132.376953,140.272537 131.552979,152.425903 
	C130.483932,151.862579 129.271942,151.417999 128.294556,150.667770 
	C126.371231,149.191452 124.803421,151.039886 124.809998,151.873611 
	C124.839142,155.561813 124.732735,158.690857 121.206146,161.266144 
	C119.800919,162.292297 122.872421,163.042801 123.688896,164.124298 
	C124.527618,165.235229 125.634529,166.077209 124.070480,167.384430 
	C122.511658,168.687271 122.313766,167.270233 121.682785,166.322220 
	C120.898506,165.143906 119.731033,164.377335 118.345093,165.461151 
	C116.862579,166.620483 111.204391,170.067917 109.498344,170.110580 
	C107.860825,170.151520 108.171341,171.071808 107.971825,171.982697 
	C107.850906,172.534760 108.336395,174.156067 106.953247,173.274094 
	C102.471275,170.416153 103.802872,172.936737 104.820892,175.419006 
	C105.191383,176.322357 104.629433,177.047134 103.881470,177.487381 
	C103.121544,177.934662 102.701706,177.194199 102.305161,176.761551 
	C101.830055,176.243164 100.841751,175.834335 101.710648,174.814774 
	C102.292397,174.132172 103.352867,173.559921 102.549370,172.052933 
	C100.166595,172.294235 99.047844,174.357956 97.789040,175.839722 
	C96.091217,177.838242 94.431129,178.073044 92.009171,176.800293 
	C92.245834,176.100052 93.325867,175.596680 92.804138,174.695404 
	C91.992889,173.293961 91.107170,174.344818 90.511086,175.016937 
	C88.181747,177.643387 84.368477,178.526505 83.250290,182.778412 
	C81.052559,179.814575 84.468674,179.340759 83.728867,177.346146 
	C78.966133,176.161713 78.225075,181.959503 74.528702,183.120361 
	C73.385262,180.293289 77.102333,179.832672 76.770477,176.531097 
	C74.238045,179.019852 70.545700,178.817322 69.395721,182.896362 
	C68.723442,183.167603 68.373123,183.254379 68.176437,182.822052 
z"/>
<path fill="#000000" opacity="1.000000" stroke="none" 
	d="
M123.600174,95.231384 
	C124.903000,96.131104 125.684639,96.313957 125.910912,94.737549 
	C125.985970,94.214684 125.412056,92.448792 126.106506,93.326767 
	C129.045105,97.041962 129.790192,93.518303 131.304749,92.224564 
	C133.427170,90.411613 133.902710,92.094643 133.950699,93.705551 
	C134.069595,97.697121 133.968018,101.694756 133.995560,105.689682 
	C134.020218,109.266136 131.288834,107.938744 129.660675,107.944756 
	C107.521133,108.026680 85.381195,107.999962 63.241352,108.000031 
	C56.582756,108.000053 49.924156,108.000610 43.265560,107.999794 
	C36.562225,107.998970 36.562225,107.998360 37.470787,100.320686 
	C39.642509,104.641655 43.204086,106.211967 47.025879,104.774033 
	C51.326889,103.155777 52.475948,99.024231 52.060501,94.429886 
	C54.564442,94.625557 52.209534,100.012039 55.423233,97.794304 
	C58.121998,95.931915 62.865211,94.366547 60.284409,88.835976 
	C64.215851,91.135025 68.160515,89.147049 69.772430,84.240784 
	C71.636154,88.263725 73.210106,87.427162 75.174294,84.484444 
	C76.309471,82.783730 78.209412,80.014618 80.079422,84.197716 
	C80.199242,84.465729 80.661537,84.871780 80.704880,84.841522 
	C85.899536,81.216980 90.453087,88.125023 94.018311,86.513397 
	C98.004417,84.711525 101.227768,89.432327 104.573410,86.109505 
	C105.429283,85.259460 106.912926,86.536743 108.002037,87.412018 
	C110.634979,89.528015 113.952065,91.056442 116.783279,92.273193 
	C118.746834,93.117065 121.516113,92.886665 123.600174,95.231384 
z"/>
<path fill="#000000" opacity="1.000000" stroke="none" 
	d="
M141.176575,100.822113 
	C142.579880,98.833160 144.070175,97.400345 143.633148,95.257690 
	C143.475082,94.482788 143.259232,94.260399 144.206696,94.076439 
	C146.650177,93.602043 146.639389,93.546478 145.663727,91.491714 
	C155.434433,89.075226 161.588791,94.359978 163.068710,105.075836 
	C164.960815,118.776321 162.826859,131.625793 156.047073,143.674164 
	C152.019043,150.832413 145.590561,153.587570 139.888977,151.048676 
	C137.321106,149.905243 136.988678,147.961456 138.372421,146.446533 
	C141.379395,143.154495 139.751373,142.296585 136.382065,141.910461 
	C138.898026,139.520660 141.622849,138.881866 144.929657,138.872375 
	C149.607574,138.858948 154.739807,132.696426 155.870392,125.880424 
	C156.550491,121.780304 156.948013,117.743767 156.287521,113.325508 
	C155.037628,104.964333 149.494583,101.602112 142.471985,101.047165 
	C141.723633,101.167747 141.373352,101.254463 141.176575,100.822113 
z"/>
<path fill="#000000" opacity="1.000000" stroke="none" 
	d="
M152.391968,124.147629 
	C151.640900,129.361511 149.729034,133.150238 144.812424,135.074554 
	C140.685425,136.689819 137.036575,134.535660 137.008820,130.130020 
	C136.972214,124.320404 137.267410,118.493896 136.910767,112.706032 
	C136.651581,108.499870 138.247162,105.866829 142.146439,105.130371 
	C146.173798,104.369743 149.527771,105.683250 151.395477,109.825218 
	C153.449448,114.380302 153.256226,119.059906 152.391968,124.147629 
z"/>
<path fill="#000000" opacity="1.000000" stroke="none" 
	d="
M129.621399,161.133545 
	C129.573212,162.726837 127.527847,164.289856 126.540871,163.790024 
	C125.690697,163.359467 124.603928,162.588287 125.250496,161.484634 
	C126.255424,159.769287 127.724480,159.332413 129.621399,161.133545 
z"/>
<path fill="#000000" opacity="1.000000" stroke="none" 
	d="
M121.384003,169.902222 
	C122.865883,171.221405 123.662132,172.396530 121.820976,173.584915 
	C120.160965,174.656387 119.193512,173.050003 118.835464,172.140945 
	C118.122208,170.330124 119.357315,169.595032 121.384003,169.902222 
z"/>
<path fill="#000000" opacity="1.000000" stroke="none" 
	d="
M97.305496,180.704926 
	C97.346184,178.735031 98.072510,177.303940 99.994514,177.690201 
	C100.599991,177.811905 102.373619,178.682800 101.267120,180.100784 
	C100.357460,181.266541 99.316269,183.091370 97.305496,180.704926 
z"/>
<path fill="#000000" opacity="1.000000" stroke="none" 
	d="
M91.632172,176.600586 
	C91.720535,176.877319 91.895569,177.174255 91.940964,177.489853 
	C92.143623,178.898865 93.989784,180.398529 91.711235,181.686386 
	C90.770882,182.217880 90.127892,181.719604 89.632828,181.064407 
	C87.981300,178.878662 90.718056,178.484146 91.490517,176.937378 
	C91.713982,176.686172 91.659149,176.629395 91.632172,176.600586 
z"/>
<path fill="#000000" opacity="1.000000" stroke="none" 
	d="
M126.223068,153.483719 
	C128.260147,151.130814 128.708817,153.604156 129.632141,154.292648 
	C130.136673,154.668854 130.112366,155.636169 129.292770,155.841003 
	C127.609428,156.261673 126.418747,155.649246 126.223068,153.483719 
z"/>
<path fill="#000000" opacity="1.000000" stroke="none" 
	d="
M103.293701,183.997498 
	C102.387772,183.776260 100.876961,184.314346 101.792725,182.903290 
	C102.221748,182.242203 102.680443,180.391678 104.270432,181.792252 
	C104.963509,182.402771 105.492149,183.199356 106.359131,183.877914 
	C105.454315,183.918396 104.549492,183.958862 103.293701,183.997498 
z"/>
<path fill="#000000" opacity="1.000000" stroke="none" 
	d="
M105.408218,179.690094 
	C106.127274,178.287170 106.984589,177.354248 108.351669,178.857071 
	C109.230217,179.822861 109.055084,180.642715 108.113808,181.280182 
	C106.604019,182.302719 106.403275,180.460373 105.408218,179.690094 
z"/>
<path fill="#000000" opacity="1.000000" stroke="none" 
	d="
M128.925568,168.931366 
	C127.832558,172.471207 126.525246,168.723862 124.396172,170.713791 
	C126.260338,168.023392 127.374680,167.444168 128.925568,168.931366 
z"/>
<path fill="#000000" opacity="1.000000" stroke="none" 
	d="
M118.776993,178.767044 
	C117.720078,177.775711 115.852043,177.507645 116.773499,175.875748 
	C117.002945,175.469406 117.879593,175.088562 118.317406,175.209167 
	C119.290802,175.477280 118.893929,176.489838 119.043961,177.568268 
	C119.131676,178.231903 119.185997,178.540955 118.776993,178.767044 
z"/>
<path fill="#000000" opacity="1.000000" stroke="none" 
	d="
M118.885750,178.112457 
	C120.261444,177.980453 121.445534,178.038071 122.992065,178.249634 
	C121.945999,179.390533 120.661629,181.104965 118.535629,178.936035 
	C118.440491,178.556732 118.567322,178.429413 118.885750,178.112457 
z"/>
<path fill="#000000" opacity="1.000000" stroke="none" 
	d="
M56.080978,91.092178 
	C57.465626,92.148148 56.730022,92.861908 55.917999,93.460564 
	C55.117252,94.050903 54.670586,93.236870 54.496513,92.761368 
	C54.121685,91.737488 55.156010,91.522575 56.080978,91.092178 
z"/>
<path fill="#000000" opacity="1.000000" stroke="none" 
	d="
M93.636803,183.785400 
	C93.853943,182.602310 94.387184,181.502762 95.813187,182.418655 
	C96.180222,182.654388 96.367950,183.169296 96.638046,183.555954 
	C95.742210,183.684036 94.846382,183.812103 93.636803,183.785400 
z"/>
<path fill="#000000" opacity="1.000000" stroke="none" 
	d="
M88.335464,183.799118 
	C87.124992,183.806976 86.233780,183.669388 85.342575,183.531799 
	C85.622223,183.150146 85.822571,182.640320 86.195572,182.409592 
	C87.626022,181.524719 88.162521,182.582840 88.335464,183.799118 
z"/>
<path fill="#000000" opacity="1.000000" stroke="none" 
	d="
M63.890598,181.883774 
	C63.971645,183.011398 64.036041,184.104095 62.601234,183.959274 
	C62.204067,183.919189 61.826424,183.685623 61.439823,183.540817 
	C61.907993,182.936447 62.376163,182.332077 63.086403,181.516281 
	C63.453663,181.433258 63.578842,181.561646 63.890598,181.883774 
z"/>
<path fill="#000000" opacity="1.000000" stroke="none" 
	d="
M115.633911,180.601807 
	C116.457146,181.154877 116.801033,181.737152 115.801186,181.788254 
	C114.917198,181.833450 115.058975,181.112503 115.633911,180.601807 
z"/>
<path fill="#000000" opacity="1.000000" stroke="none" 
	d="
M68.888824,182.885406 
	C68.731125,183.888672 68.196220,184.220810 67.411964,183.661926 
	C67.363899,183.627655 67.722404,183.022888 68.110886,182.493256 
	C68.454659,182.431961 68.579277,182.560989 68.888824,182.885406 
z"/>
<path fill="#000000" opacity="1.000000" stroke="none" 
	d="
M113.689957,180.006927 
	C113.823853,179.206223 114.358673,178.746078 114.778976,179.571365 
	C115.205833,180.409500 114.678192,180.559052 113.689957,180.006927 
z"/>
<path fill="#000000" opacity="1.000000" stroke="none" 
	d="
M123.412109,178.462845 
	C123.067421,177.711456 122.845421,176.924057 123.561478,176.248657 
	C123.676140,176.140518 124.086212,176.345581 124.359711,176.405853 
	C124.173126,176.852661 123.986534,177.299454 123.577217,178.074921 
	C123.354500,178.403580 123.393883,178.442154 123.412109,178.462845 
z"/>
<path fill="#000000" opacity="1.000000" stroke="none" 
	d="
M110.562866,175.784454 
	C111.877205,176.255905 112.220016,176.787659 111.668831,177.578918 
	C111.635170,177.627258 111.027756,177.275909 110.496353,176.891296 
	C110.221870,176.332184 110.138290,175.992310 110.562866,175.784454 
z"/>
<path fill="#000000" opacity="1.000000" stroke="none" 
	d="
M110.497917,176.484283 
	C109.984459,176.218826 109.044464,176.040359 109.537422,175.262192 
	C109.644295,175.093475 110.389778,175.329330 110.956055,175.647659 
	C110.944130,176.043152 110.817268,176.169830 110.497917,176.484283 
z"/>
<path fill="#000000" opacity="1.000000" stroke="none" 
	d="
M125.563873,174.649612 
	C125.745064,175.493271 125.589142,176.331619 124.803886,175.779510 
	C123.999199,175.213760 125.063820,174.865723 125.563873,174.649612 
z"/>
<path fill="#000000" opacity="1.000000" stroke="none" 
	d="
M67.366180,83.398193 
	C66.542923,82.845154 66.198914,82.262856 67.198822,82.211685 
	C68.082809,82.166443 67.941078,82.887436 67.366180,83.398193 
z"/>
<path fill="#000000" opacity="1.000000" stroke="none" 
	d="
M141.888962,100.885582 
	C141.731247,101.888863 141.196274,102.220909 140.412064,101.662041 
	C140.363998,101.627777 140.722473,101.023018 141.110947,100.493362 
	C141.454727,100.432060 141.579361,100.561096 141.888962,100.885582 
z"/>
<path fill="#FF005A" opacity="1.000000" stroke="none" 
	d="
M121.110313,65.083572 
	C121.963661,63.396755 122.869873,62.234924 124.399628,63.947350 
	C125.098572,64.729744 125.394333,65.885780 124.653145,66.512428 
	C123.174599,67.762497 122.059555,66.651611 121.110313,65.083572 
z"/>
<path fill="#FF005A" opacity="1.000000" stroke="none" 
	d="
M70.672592,42.302692 
	C72.325356,43.588367 72.144531,44.612816 70.841690,45.578259 
	C69.756050,46.382755 68.930313,45.681362 68.491096,44.871048 
	C67.427315,42.908466 68.856392,42.425201 70.672592,42.302692 
z"/>
<path fill="#FF005A" opacity="1.000000" stroke="none" 
	d="
M45.834629,52.535797 
	C44.931519,51.824772 42.498264,52.452461 43.285332,50.391296 
	C43.713192,49.270824 44.993458,48.545525 46.122097,49.142670 
	C47.739925,49.998638 47.093948,51.237019 45.834629,52.535797 
z"/>
<path fill="#FF005A" opacity="1.000000" stroke="none" 
	d="
M77.363174,64.566162 
	C76.507851,63.536446 74.287659,63.110695 76.074387,61.561882 
	C76.575943,61.127110 77.877151,60.850746 78.251175,61.166180 
	C79.808571,62.479633 78.906647,63.661819 77.363174,64.566162 
z"/>
<path fill="#FF0058" opacity="1.000000" stroke="none" 
	d="
M100.084656,67.968262 
	C100.287819,65.423096 101.629303,65.819794 102.868591,66.472443 
	C103.577721,66.845886 104.357162,67.917976 103.729927,68.465805 
	C102.722206,69.345940 101.310890,69.344505 100.084656,67.968262 
z"/>
<path fill="#FF005A" opacity="1.000000" stroke="none" 
	d="
M94.032608,41.326363 
	C94.610329,39.521996 95.369400,38.707390 96.718658,40.247589 
	C97.183594,40.778316 98.187050,41.320942 97.231583,42.144848 
	C96.070480,43.146084 94.768547,44.058052 94.032608,41.326363 
z"/>
<path fill="#FF0058" opacity="1.000000" stroke="none" 
	d="
M57.840717,61.931709 
	C55.009644,61.471420 56.176262,59.790882 56.364258,58.484951 
	C56.381752,58.363415 57.297569,58.145580 57.559776,58.322666 
	C58.935608,59.251831 59.756062,60.380566 57.840717,61.931709 
z"/>
<path fill="#FF0058" opacity="1.000000" stroke="none" 
	d="
M48.554726,73.808556 
	C46.953949,72.626518 47.266323,71.727570 48.602207,71.215660 
	C49.477921,70.880096 50.640671,70.635010 50.916969,72.076843 
	C51.222683,73.672180 50.344872,74.142952 48.554726,73.808556 
z"/>
<path fill="#FF005A" opacity="1.000000" stroke="none" 
	d="
M111.731186,54.566776 
	C110.439407,56.300442 109.343208,56.194923 108.402313,54.753262 
	C108.183273,54.417660 108.241150,53.462307 108.294029,53.452507 
	C109.589020,53.212475 111.159256,51.940956 111.731186,54.566776 
z"/>
<path fill="#FF005A" opacity="1.000000" stroke="none" 
	d="
M87.293922,50.829880 
	C88.540298,52.941071 87.302216,53.028587 86.017288,52.931458 
	C85.148453,52.865776 84.204269,52.093113 84.409241,51.472317 
	C84.762009,50.403881 85.656029,49.392315 87.293922,50.829880 
z"/>
<path fill="#FF005A" opacity="1.000000" stroke="none" 
	d="
M105.071823,34.954117 
	C105.107765,33.481457 105.438972,32.610058 106.713844,33.390911 
	C107.464211,33.850513 108.467247,34.612656 107.584251,35.583950 
	C106.914223,36.320972 105.868027,36.157490 105.071823,34.954117 
z"/>
<path fill="#FF005A" opacity="1.000000" stroke="none" 
	d="
M122.637581,59.566879 
	C120.788704,59.921326 120.974556,58.789425 121.146866,57.843300 
	C121.199402,57.554821 121.941818,57.103184 122.209999,57.193943 
	C123.241806,57.543133 122.921783,58.486614 122.637581,59.566879 
z"/>
<path fill="#FF005A" opacity="1.000000" stroke="none" 
	d="
M54.930935,80.114349 
	C54.875683,81.140152 54.869499,81.960838 53.948330,81.829895 
	C52.778439,81.663605 52.905735,80.617134 53.131317,79.907349 
	C53.484264,78.796814 54.212040,78.902222 54.930935,80.114349 
z"/>
<path fill="#FF0058" opacity="1.000000" stroke="none" 
	d="
M85.747490,37.641239 
	C85.116493,37.254837 83.798119,37.126152 84.550476,36.040215 
	C84.853882,35.602299 85.242867,34.899021 86.053497,35.570347 
	C86.900963,36.272175 86.813011,36.848167 85.747490,37.641239 
z"/>
<path fill="#FF005A" opacity="1.000000" stroke="none" 
	d="
M65.299889,56.045910 
	C66.342049,56.095428 67.038795,56.267422 66.842056,57.138630 
	C66.771011,57.453274 66.044434,57.941914 65.864990,57.852646 
	C65.194092,57.518894 63.831776,57.364323 65.299889,56.045910 
z"/>
<path fill="#FF0058" opacity="1.000000" stroke="none" 
	d="
M25.573093,62.669914 
	C23.700457,62.874668 24.019262,61.769276 24.149336,60.823387 
	C24.168676,60.682743 24.615677,60.440449 24.741825,60.501083 
	C25.539951,60.884701 26.025719,61.495365 25.573093,62.669914 
z"/>
<path fill="#FF005A" opacity="1.000000" stroke="none" 
	d="
M90.231422,70.227394 
	C88.886246,71.173782 88.755524,69.928619 88.194756,69.537872 
	C88.641258,69.089607 89.087753,68.641342 89.534248,68.193069 
	C89.926872,68.753281 91.169823,68.881210 90.231422,70.227394 
z"/>
<path fill="#FF005A" opacity="1.000000" stroke="none" 
	d="
M64.125320,36.311249 
	C63.094753,36.968864 62.068802,37.241310 62.185760,35.977318 
	C62.319485,34.532089 63.536747,35.018654 64.455551,35.294991 
	C64.529037,35.317089 64.610161,35.511555 64.589592,35.604111 
	C64.555290,35.758457 64.441574,35.895161 64.125320,36.311249 
z"/>
<path fill="#FF0058" opacity="1.000000" stroke="none" 
	d="
M130.690308,72.872803 
	C132.779297,72.498161 131.779221,73.750008 131.765717,74.429153 
	C131.763153,74.558655 130.889145,74.889252 130.586487,74.752480 
	C129.753357,74.375916 130.130463,73.701271 130.690308,72.872803 
z"/>
<path fill="#FF005A" opacity="1.000000" stroke="none" 
	d="
M44.652531,153.217987 
	C44.669407,155.902542 46.118351,158.161194 46.382420,159.886414 
	C47.135944,164.809418 49.179893,162.886444 51.528378,162.166046 
	C52.194672,161.961670 52.961044,162.231110 52.812683,163.088120 
	C52.714325,163.656281 52.256531,164.306625 51.767986,164.635376 
	C50.376385,165.571808 41.466885,163.269653 41.722397,162.953415 
	C44.043545,160.080536 40.216095,157.788605 41.261093,155.149612 
	C42.052227,153.151718 43.747894,150.784409 39.891735,149.906113 
	C39.144878,149.735992 38.896790,149.126907 39.295471,148.402817 
	C41.997791,143.494720 40.546803,138.129837 40.976616,132.973724 
	C41.043526,132.171066 40.972099,130.693512 40.698341,130.627182 
	C37.518845,129.856873 38.104630,128.749725 39.849171,126.737762 
	C40.784157,125.659462 39.059086,122.936165 41.741810,122.500351 
	C42.699730,122.344727 43.647045,128.009811 43.624916,129.231094 
	C43.561226,132.746506 40.540443,136.762299 45.055000,139.672852 
	C45.687191,140.080429 45.616779,140.591827 45.186348,141.298386 
	C42.925964,145.008911 44.588039,149.025726 44.652531,153.217987 
z"/>
<path fill="#FF005A" opacity="1.000000" stroke="none" 
	d="
M111.444199,140.019699 
	C114.494873,142.195389 118.068573,143.322479 116.429047,148.431686 
	C114.818451,153.450760 110.938377,154.431961 107.154488,154.770737 
	C103.801559,155.070908 101.315254,152.534576 100.997383,148.701752 
	C100.557777,143.400955 102.254883,140.656616 106.575859,140.052521 
	C108.034866,139.848557 109.545052,140.010559 111.444199,140.019699 
z"/>
<path fill="#FF005A" opacity="1.000000" stroke="none" 
	d="
M77.675880,158.849640 
	C74.746635,156.532608 72.645905,153.961884 73.345390,150.401978 
	C73.860588,147.779968 75.990448,146.423340 78.628464,146.018356 
	C83.492081,145.271698 86.783005,147.543976 86.998924,151.787430 
	C87.281654,157.343704 85.166100,159.042328 77.675880,158.849640 
z"/>
<path fill="#FF005A" opacity="1.000000" stroke="none" 
	d="
M100.141205,127.994064 
	C94.683220,126.851082 95.430237,122.744568 96.349449,119.693825 
	C97.444084,116.060951 101.032074,115.493889 104.560822,116.040298 
	C107.803955,116.542473 107.053932,119.144676 106.947418,121.125542 
	C106.734863,125.078102 105.397377,128.236969 100.141205,127.994064 
z"/>
<path fill="#FF005A" opacity="1.000000" stroke="none" 
	d="
M103.234360,103.956436 
	C102.141602,103.621315 101.108292,102.855476 101.589417,102.403023 
	C102.370003,101.668945 103.890175,101.569641 104.667564,102.512062 
	C105.372726,103.366943 104.535515,103.881256 103.234360,103.956436 
z"/>
<path fill="#FF0058" opacity="1.000000" stroke="none" 
	d="
M115.433235,103.637383 
	C115.079041,101.789352 116.210060,101.974541 117.156052,102.147263 
	C117.444565,102.199951 117.895996,102.941925 117.805252,103.209892 
	C117.456116,104.240982 116.513161,103.921776 115.433235,103.637383 
z"/>
<path fill="#FF0058" opacity="1.000000" stroke="none" 
	d="
M85.553070,103.220947 
	C86.345535,103.948830 87.139580,104.444794 86.147217,105.304817 
	C85.445145,105.913254 84.994637,105.554901 84.583206,105.032135 
	C83.824699,104.068359 83.711029,103.275429 85.553070,103.220947 
z"/>
<path fill="#FF005A" opacity="1.000000" stroke="none" 
	d="
M87.885651,90.931221 
	C86.859505,90.876060 86.038757,90.869720 86.169670,89.948326 
	C86.335960,88.778000 87.382729,88.905396 88.092697,89.131050 
	C89.203522,89.484116 89.098091,90.212105 87.885651,90.931221 
z"/>
<path fill="#FF005A" opacity="1.000000" stroke="none" 
	d="
M72.245361,94.641251 
	C71.170540,93.838432 71.112503,93.257660 71.954193,92.564461 
	C72.770378,91.892265 73.159767,92.614433 73.455788,93.049477 
	C74.195694,94.136925 72.879295,94.260902 72.245361,94.641251 
z"/>
<path fill="#FF005A" opacity="1.000000" stroke="none" 
	d="
M104.125000,94.311096 
	C103.094795,94.968506 102.069153,95.240898 102.186073,93.977318 
	C102.319748,92.532585 103.536652,93.018997 104.455154,93.295212 
	C104.528610,93.317299 104.609726,93.511696 104.589149,93.604195 
	C104.554832,93.758492 104.441139,93.895134 104.125000,94.311096 
z"/>
<path fill="#FF005A" opacity="1.000000" stroke="none" 
	d="
M63.754601,94.358871 
	C64.829323,95.161606 64.887352,95.742294 64.045746,96.435425 
	C63.229641,97.107552 62.840332,96.385468 62.544342,95.950462 
	C61.804493,94.863136 63.120789,94.739204 63.754601,94.358871 
z"/>
<path fill="#FF005A" opacity="1.000000" stroke="none" 
	d="
M88.430450,96.249619 
	C89.784691,96.183105 90.339897,96.703117 89.577179,97.597252 
	C89.282608,97.942566 88.252007,98.038467 87.799805,97.795540 
	C86.712341,97.211349 88.050621,96.903488 88.430450,96.249619 
z"/>
<path fill="#FF005A" opacity="1.000000" stroke="none" 
	d="
M120.470596,98.707199 
	C121.235397,97.979416 122.172577,97.637794 122.850594,98.735870 
	C122.963585,98.918877 122.821442,99.440514 122.627693,99.600914 
	C121.726768,100.346718 121.185127,99.607948 120.470596,98.707199 
z"/>
<path fill="#FF0058" opacity="1.000000" stroke="none" 
	d="
M128.774750,100.642952 
	C128.891891,101.717751 129.272293,102.694077 128.053162,102.858437 
	C127.792969,102.893509 127.309563,102.692642 127.240303,102.492653 
	C126.808685,101.246323 127.722992,100.777336 128.774750,100.642952 
z"/>
<path fill="#FF0058" opacity="1.000000" stroke="none" 
	d="
M71.683823,104.950684 
	C70.639923,104.907722 69.957687,104.720314 70.154922,103.858437 
	C70.226944,103.543747 70.942856,103.056511 71.128082,103.144844 
	C71.809555,103.469810 73.140465,103.642685 71.683823,104.950684 
z"/>
<path fill="#000000" opacity="1.000000" stroke="none" 
	d="
M106.076805,144.003906 
	C108.963326,141.898697 111.463470,143.368546 112.741600,145.012314 
	C114.093658,146.751190 112.103134,148.527557 110.615067,149.880722 
	C108.878006,151.460297 107.244736,151.451080 105.432335,149.941345 
	C102.879951,147.815231 104.369904,145.983322 106.076805,144.003906 
z"/>
<path fill="#000000" opacity="1.000000" stroke="none" 
	d="
M78.255508,150.053802 
	C80.228996,150.393265 82.218010,149.002380 83.293877,151.525070 
	C83.804947,152.723434 83.244873,153.365173 82.890160,154.115585 
	C82.134216,155.714844 80.367981,155.249908 79.449074,154.858109 
	C77.450081,154.005737 76.112518,152.438568 78.255508,150.053802 
z"/>
<path fill="#000000" opacity="1.000000" stroke="none" 
	d="
M101.661446,124.598076 
	C98.216042,122.568657 98.510490,121.543961 103.304161,118.999733 
	C103.434441,121.027634 102.647438,122.670204 101.661446,124.598076 
z"/>
</svg>